<svg width="18" height="19" viewBox="0 0 18 19" fill="none" xmlns="http://www.w3.org/2000/svg">
<path d="M8.99602 4.7833C11.5514 4.7833 13.6125 6.8874 13.6125 9.496C13.6125 12.1046 11.5514 14.2087 8.99602 14.2087C6.44066 14.2087 4.3795 12.1046 4.3795 9.496C4.3795 6.8874 6.44066 4.7833 8.99602 4.7833ZM8.99602 12.5599C10.6474 12.5599 11.9974 11.1858 11.9974 9.496C11.9974 7.80615 10.6514 6.43213 8.99602 6.43213C7.34066 6.43213 5.99468 7.80615 5.99468 9.496C5.99468 11.1858 7.34468 12.5599 8.99602 12.5599ZM3.11388 4.59053C3.11388 5.20166 3.59602 5.68975 4.19066 5.68975C4.78932 5.68975 5.26745 5.19756 5.26745 4.59053C5.26745 3.9835 4.78531 3.49131 4.19066 3.49131C3.59602 3.49131 3.11388 3.9835 3.11388 4.59053ZM0.0562897 5.70615C0.124594 4.23369 0.454058 2.92939 1.51075 1.85479C2.56343 0.780176 3.84111 0.443848 5.28352 0.37002C6.77013 0.283887 11.2259 0.283887 12.7125 0.37002C14.1509 0.439746 15.4286 0.776074 16.4853 1.85068C17.542 2.92529 17.8674 4.22959 17.9398 5.70205C18.0241 7.21963 18.0241 11.7683 17.9398 13.2858C17.8715 14.7583 17.542 16.0626 16.4853 17.1372C15.4286 18.2118 14.1549 18.5481 12.7125 18.622C11.2259 18.7081 6.77013 18.7081 5.28352 18.622C3.84111 18.5522 2.56343 18.2159 1.51075 17.1372C0.458076 16.0626 0.128611 14.7583 0.0562897 13.2858C-0.0280857 11.7683 -0.0280857 7.22373 0.0562897 5.70615ZM1.97683 14.9142C2.29022 15.7181 2.89691 16.3374 3.68843 16.6614C4.8737 17.1413 7.6862 17.0306 8.99602 17.0306C10.3058 17.0306 13.1224 17.1372 14.3036 16.6614C15.0911 16.3415 15.6978 15.7222 16.0152 14.9142C16.4853 13.7042 16.3768 10.8331 16.3768 9.496C16.3768 8.15889 16.4813 5.28369 16.0152 4.07783C15.7018 3.27393 15.0951 2.65459 14.3036 2.33057C13.1183 1.85068 10.3058 1.96143 8.99602 1.96143C7.6862 1.96143 4.86968 1.85479 3.68843 2.33057C2.90093 2.65049 2.29424 3.26982 1.97683 4.07783C1.50674 5.28779 1.61522 8.15889 1.61522 9.496C1.61522 10.8331 1.50674 13.7083 1.97683 14.9142Z" fill="#E40020"/>
</svg>
