<svg width="1434" height="653" viewBox="0 0 1434 653" fill="none" xmlns="http://www.w3.org/2000/svg">
<path d="M64.6648 469.285C64.7847 467.94 63.5604 466.475 60.9918 464.891C59.7675 463.426 57.199 461.841 54.5105 461.601C51.822 461.361 49.1335 461.122 46.445 460.882L46.565 459.537L46.6849 458.192L46.8048 456.847L46.9248 455.502C46.9248 455.502 46.9248 455.502 47.0447 454.157C47.0447 454.157 47.0447 454.157 47.1646 452.812L48.6288 451.587L50.093 450.361L51.5572 449.136L53.0214 447.911C54.4856 446.686 54.6055 445.341 56.0697 444.116C56.1896 442.771 57.6538 441.545 57.7737 440.2C57.8937 438.855 58.0136 437.51 58.1335 436.165C58.2535 434.82 58.3734 433.475 57.0292 433.355C57.0292 433.355 57.1491 432.01 55.8049 431.89L54.5805 430.425L53.3562 428.96L52.1319 427.496L50.7877 427.376L49.4434 427.256C49.4434 427.256 49.4434 427.256 48.0992 427.136C48.0992 427.136 48.0992 427.136 46.635 428.361C45.1708 429.586 43.7067 430.811 43.7067 430.811C42.2425 432.037 42.1225 433.382 42.0026 434.727C41.8827 436.072 41.7627 437.417 41.6428 438.762C41.5228 440.107 41.4029 441.452 41.283 442.797L41.163 444.142C41.163 444.142 41.0431 445.487 42.3873 445.607L42.2674 446.952C42.2674 446.952 42.1475 448.297 40.8032 448.177C39.459 448.057 39.339 449.402 37.9948 449.283C36.6506 449.163 36.5306 450.508 35.1864 450.388C33.8421 450.268 33.7222 451.613 32.378 451.493C31.0337 451.373 30.9138 452.718 29.5695 452.598C28.1053 453.824 26.6412 455.049 25.2969 454.929C22.2486 458.724 20.9044 458.605 19.4402 459.83C17.976 461.055 17.8561 462.4 16.3919 463.625C16.272 464.97 14.8078 466.195 14.6878 467.54C14.448 470.231 14.328 471.576 15.4324 474.386C16.6567 475.85 19.1053 478.78 20.3296 480.245C22.8982 481.83 25.4667 483.415 29.4995 483.774C33.5322 484.134 36.1008 485.719 40.2534 484.733L41.5977 484.853L42.9419 484.973L44.2862 485.093L45.6304 485.213C45.5105 486.558 46.7348 488.023 47.9591 489.488C49.1834 490.952 49.0634 492.298 50.2878 493.762C50.1678 495.108 51.3921 496.572 51.2722 497.917C51.1523 499.263 51.0323 500.608 49.5681 501.833L48.104 503.058L46.6398 504.283C45.2955 504.163 45.1756 505.508 43.8313 505.388C42.4871 505.269 42.4871 505.269 41.0229 506.494C41.0229 506.494 41.0229 506.494 39.6787 506.374C38.3344 506.254 38.3344 506.254 36.9902 506.134C35.6459 506.014 35.6459 506.014 34.3017 505.894L32.9575 505.775C32.9575 505.775 31.6132 505.655 31.7331 504.31C33.0774 504.429 34.5416 503.204 35.8858 503.324C37.35 502.099 38.6942 502.219 38.8142 500.874C38.9341 499.529 39.0541 498.184 39.0541 498.184C39.174 496.839 37.8297 496.719 36.6054 495.254L35.2612 495.134L33.917 495.014L32.5727 494.894L31.2285 494.774C29.8842 494.655 28.54 494.535 28.42 495.88C27.0758 495.76 26.9559 497.105 25.6116 496.985C24.2674 496.865 24.1474 498.21 24.1474 498.21C24.0275 499.555 22.6832 499.435 22.5633 500.78C22.4434 502.126 22.3234 503.471 23.5477 504.936C24.772 506.4 24.7721 506.4 25.9964 507.865C27.3406 507.985 28.5649 509.45 31.2534 509.69C32.5976 509.81 35.2861 510.049 36.6304 510.169C37.9746 510.289 39.3189 510.409 40.7831 509.184C42.1273 509.304 43.5915 508.079 44.9357 508.198C46.28 508.318 47.7441 507.093 49.2083 505.868C50.6725 504.643 50.6725 504.643 52.1367 503.417C52.2566 502.072 53.7208 500.847 52.4965 499.382C52.6164 498.037 52.7364 496.692 51.5121 495.227C51.632 493.882 50.4077 492.417 50.5276 491.072C50.6476 489.727 49.4233 488.262 49.5432 486.917L49.6631 485.572C49.6631 485.572 51.0074 485.692 51.1273 484.347L52.4716 484.467C52.4716 484.467 52.4716 484.467 53.8158 484.587C53.8158 484.587 53.8158 484.587 55.16 484.707C55.16 484.707 55.1601 484.707 56.5043 484.827L57.9685 483.601L59.4327 482.376L60.8968 481.151C60.8968 481.151 61.0168 479.806 62.361 479.926C64.305 473.32 64.4249 471.975 64.6648 469.285ZM38.8344 439.867C38.9543 438.522 38.9543 438.522 40.4185 437.297C40.4185 437.297 40.5384 435.952 41.8827 436.072L43.3468 434.847L44.811 433.621C44.811 433.621 44.811 433.621 46.1553 433.741C48.8438 433.981 50.188 434.101 50.188 434.101L50.0681 435.446L49.9481 436.791C49.9481 436.791 49.8282 438.136 48.4839 438.016C48.364 439.361 47.0198 439.241 46.8998 440.586C46.7799 441.931 45.4356 441.812 45.3157 443.157C43.9715 443.037 43.8515 444.382 42.5073 444.262C41.163 444.142 41.0431 445.487 39.6989 445.367C39.8188 444.022 38.4746 443.902 38.5945 442.557C38.7144 441.212 38.7144 441.212 38.8344 439.867C38.7144 441.212 38.7144 441.212 38.8344 439.867ZM48.6787 481.417C48.6787 481.417 48.5588 482.762 48.6787 481.417C47.2145 482.642 47.2145 482.642 45.8703 482.523L44.526 482.403L43.1818 482.283L41.8375 482.163C40.4933 482.043 39.1491 481.923 37.8048 481.803C36.4606 481.684 35.1163 481.564 33.7721 481.444C32.4278 481.324 31.0836 481.204 29.8593 479.739C28.515 479.619 27.2907 478.154 25.9465 478.035C23.3779 476.45 20.8094 474.865 21.0493 472.175C19.8249 470.71 20.0648 468.02 21.529 466.795C22.9932 465.569 24.5773 462.999 26.0415 461.774C28.8499 460.669 31.6583 459.563 33.1225 458.338C33.1225 458.338 34.4668 458.458 34.5867 457.113C34.5867 457.113 35.9309 457.233 36.0509 455.888C36.0509 455.888 37.3951 456.008 37.5151 454.663C37.5151 454.663 38.8593 454.783 38.9792 453.438C38.9792 453.438 38.9792 453.438 38.8593 454.783C38.8593 454.783 38.8593 454.783 38.7394 456.128C38.7394 456.128 38.7394 456.128 38.6194 457.473C38.6194 457.473 38.6194 457.473 38.4995 458.818C38.4995 458.818 38.4995 458.818 38.3796 460.163C38.3796 460.163 38.3796 460.163 38.2596 461.508C38.2596 461.508 38.2596 461.508 38.1397 462.853C38.1397 462.853 38.1397 462.853 36.7954 462.733C35.4512 462.613 35.4512 462.613 33.987 463.838L32.5228 465.064L31.0586 466.289L29.5945 467.514C32.4029 466.409 32.283 467.754 30.8188 468.979C30.6988 470.324 30.6988 470.324 30.5789 471.669C31.9231 471.789 31.8032 473.134 31.6833 474.479C32.9076 475.944 32.9076 475.944 34.1319 477.409C34.1319 477.409 34.1319 477.409 35.4761 477.529L36.8204 477.648C38.1646 477.768 38.1646 477.768 39.5089 477.888L40.8531 478.008C40.8531 478.008 40.8531 478.008 39.5089 477.888L38.1646 477.768C36.8204 477.648 36.8204 477.648 36.8204 477.648L35.4761 477.529C34.2518 476.064 34.2518 476.064 34.3718 474.719C34.4917 473.374 34.4917 473.374 35.9559 472.148C36.0758 470.803 37.4201 470.923 38.8842 469.698C40.3484 468.473 41.6927 468.593 43.0369 468.713C43.0369 468.713 42.917 470.058 44.2612 470.177C44.2612 470.177 44.1413 471.522 45.4855 471.642C45.4855 471.642 45.3656 472.987 46.7098 473.107C46.7098 473.107 46.5899 474.452 47.9341 474.572L47.8142 475.917L47.6943 477.262L47.5743 478.607L47.4544 479.952C47.4544 479.952 47.4544 479.952 47.3345 481.297C48.7986 480.072 48.7986 480.072 48.6787 481.417ZM58.5682 476.876C58.4482 478.221 57.104 478.101 55.6398 479.327C54.1756 480.552 52.8314 480.432 51.3672 481.657C51.4871 480.312 50.2628 478.847 50.3828 477.502C50.5027 476.157 49.2784 474.692 49.3983 473.347C49.5183 472.002 48.294 470.537 48.4139 469.192C48.5338 467.847 47.3095 466.382 47.4295 465.037L48.7737 465.157C50.1179 465.277 50.1179 465.277 51.4622 465.397C52.8064 465.516 52.8064 465.516 54.1507 465.636L55.4949 465.756L56.8392 465.876C56.8392 465.876 58.1834 465.996 58.0635 467.341C58.0635 467.341 59.4077 467.461 59.2878 468.806L60.5121 470.271C58.928 472.841 58.928 472.841 58.808 474.186C58.6881 475.531 58.6881 475.531 58.5682 476.876Z" fill="#E9DAA8" fill-opacity="0.31"/>
<path d="M85.4276 464.358C85.5475 463.013 84.2033 462.893 84.2033 462.893L82.859 462.773L81.5148 462.653L80.1705 462.533C80.1705 462.533 80.1705 462.533 78.8263 462.414C78.8263 462.414 78.8263 462.414 77.4821 462.294C77.4821 462.294 77.482 462.294 76.1378 462.174C76.2577 460.829 76.3777 459.484 75.1534 458.019C75.2733 456.674 75.3932 455.329 74.1689 453.864C74.2889 452.519 74.4088 451.174 73.0646 451.054C73.1845 449.709 73.3044 448.364 73.3044 448.364C73.1845 449.709 74.2889 452.519 74.1689 453.864C74.049 455.209 75.1534 458.019 75.0334 459.364C74.9135 460.709 76.0179 463.519 75.8979 464.864C75.6581 467.554 76.8824 469.019 76.6425 471.709C76.6425 471.709 77.9867 471.829 78.1067 470.484C78.1067 470.484 79.4509 470.604 79.5709 469.259C79.5709 469.259 80.9151 469.379 81.035 468.034C81.035 468.034 82.3793 468.153 82.4992 466.808C82.4992 466.808 83.8435 466.928 83.9634 465.583C83.9634 465.583 85.3076 465.703 85.4276 464.358C85.4276 464.358 86.7718 464.478 86.8918 463.133C86.8918 463.133 87.0117 461.788 88.3559 461.908C85.3076 465.703 85.3076 465.703 85.4276 464.358ZM81.2749 465.343C81.2749 465.343 81.155 466.688 81.2749 465.343C81.155 466.688 81.155 466.688 81.2749 465.343C81.155 466.688 79.8107 466.569 79.8107 466.569C79.8107 466.569 79.6908 467.914 78.3465 467.794L76.8824 469.019C76.8824 469.019 75.5381 468.899 75.4182 470.244L75.5381 468.899L75.6581 467.554L75.778 466.209L75.8979 464.864L77.2422 464.984C77.2422 464.984 77.2422 464.984 78.5864 465.104C81.3948 463.998 81.3948 463.998 81.2749 465.343Z" fill="#E9DAA8" fill-opacity="0.31"/>
<path fill-rule="evenodd" clip-rule="evenodd" d="M1095.37 291.4C1096.71 291.52 1096.83 290.175 1098.18 290.295C1100.51 294.57 1102.72 300.189 1103.7 304.344C1105.16 303.119 1106.63 301.894 1108.09 300.669C1109.2 303.479 1110.3 306.289 1111.41 309.099C1109.94 310.324 1108.48 311.549 1107.01 312.774C1108 316.929 1110.45 319.859 1111.43 324.014C1112.9 322.789 1114.36 321.564 1115.82 320.339C1116.93 323.149 1118.03 325.959 1119.14 328.769C1117.67 329.994 1116.21 331.219 1114.74 332.444C1117.07 336.719 1119.28 342.339 1120.27 346.494C1118.92 346.374 1117.46 347.599 1117.46 347.599C1115.13 343.324 1114.26 337.824 1111.94 333.549C1109.13 334.655 1107.66 335.88 1104.73 338.33C1106.94 343.95 1109.27 348.225 1111.48 353.845C1110.14 353.725 1108.67 354.95 1108.67 354.95C1106.34 350.675 1104.14 345.056 1103.15 340.901C1101.69 342.126 1100.22 343.351 1098.76 344.576C1097.65 341.766 1096.55 338.956 1095.45 336.146C1096.91 334.921 1098.37 333.696 1099.84 332.471C1098.85 328.316 1096.4 325.386 1095.42 321.231C1093.96 322.456 1092.49 323.681 1091.03 324.906C1089.92 322.096 1088.82 319.286 1087.71 316.476C1089.18 315.251 1090.64 314.026 1092.11 312.801C1089.9 307.181 1087.57 302.906 1085.36 297.286C1086.71 297.406 1088.17 296.181 1088.17 296.181C1090.5 300.456 1092.71 306.076 1093.69 310.231C1096.5 309.125 1097.96 307.9 1100.89 305.45C1099.91 301.295 1097.7 295.675 1095.37 291.4ZM1098.47 317.435C1099.45 321.59 1101.9 324.52 1102.89 328.675C1105.69 327.57 1107.16 326.345 1110.09 323.894C1108.98 321.084 1108 316.929 1105.55 314C1105.55 314 1105.67 312.655 1104.33 312.535C1102.74 315.105 1099.93 316.21 1098.47 317.435Z" fill="#E9DAA8" fill-opacity="0.31"/>
<path fill-rule="evenodd" clip-rule="evenodd" d="M291.742 429.881L293.086 430.001C292.606 435.381 295.055 438.311 297.503 441.241C299.952 444.171 302.4 447.1 304.969 448.685C307.418 451.615 309.866 454.545 310.851 458.7C311.835 462.855 311.475 466.89 311.115 470.925L310.996 472.27L310.876 473.615C311.98 476.425 312.964 480.58 312.485 485.96C312.245 488.65 310.541 492.566 308.957 495.136C308.957 495.136 307.372 497.706 307.492 496.361C307.492 496.361 307.492 496.361 307.612 495.016C309.316 491.101 311.26 484.495 310.396 478.995C309.531 473.495 304.394 470.326 300.601 467.276C298.033 465.691 295.464 464.107 291.671 461.057C292.056 471.937 291.217 481.352 291.721 490.888C291.362 494.923 291.122 497.613 290.882 500.303C289.178 504.218 284.785 507.894 279.288 508.759C273.791 509.625 267.19 507.681 266.326 502.18C266.565 499.49 268.03 498.265 268.27 495.575C271.198 493.125 274.126 490.674 278.399 488.344C281.207 487.239 286.584 487.718 289.153 489.303C290.712 471.817 291.287 450.177 291.742 429.881ZM301.321 459.206C305.114 462.256 308.907 465.305 311.235 469.58C311.235 469.58 311.115 470.925 311.235 469.58C311.955 461.51 309.626 457.235 305.953 452.84C302.281 448.445 298.488 445.396 293.231 443.571C293.855 451.761 297.528 456.156 301.321 459.206Z" fill="#E9DAA8" fill-opacity="0.31"/>
<path d="M819.255 379.305L819.375 377.96C819.375 377.96 819.495 376.615 820.839 376.735C822.543 372.82 824.367 367.56 823.383 363.405C823.743 359.37 821.414 355.095 820.43 350.94C818.101 346.665 816.997 343.855 814.548 340.925C813.444 338.115 812.339 335.305 811.235 332.495L811.475 329.805L808.786 329.565L792.155 394.514C789.827 390.239 783.105 389.639 777.609 390.505C769.303 392.476 764.791 397.497 765.655 402.997C766.52 408.497 774.345 411.906 781.306 409.815C788.268 407.724 792.66 404.049 793.14 398.669L803.219 361.607C805.668 364.537 808.236 366.121 810.685 369.051C814.358 373.446 818.031 377.841 817.551 383.221C816.952 389.946 813.783 395.086 810.735 398.882C810.735 398.882 809.271 400.107 810.615 400.227C811.839 401.692 812.079 399.002 813.423 399.122C815.008 396.551 817.936 394.101 818.176 391.411C819.88 387.496 820.24 383.46 819.255 379.305ZM819.615 375.27C818.151 376.496 818.271 375.15 819.615 375.27C817.406 369.65 815.078 365.376 811.405 360.981C809.076 356.706 806.747 352.431 807.227 347.051L807.467 344.361C811.14 348.756 814.933 351.805 817.142 357.425C820.814 361.82 821.559 368.665 819.615 375.27Z" fill="#E9DAA8" fill-opacity="0.31"/>
<path d="M1418.89 203.655C1417.67 202.19 1416.33 202.07 1416.45 200.725C1416.57 199.38 1416.69 198.035 1416.81 196.69C1416.42 185.809 1413.23 176.035 1408.57 167.485C1403.91 158.935 1396.33 152.836 1387.28 147.961C1379.57 143.207 1371.87 138.453 1362.7 134.924C1356.22 131.634 1351.08 128.465 1347.65 121.38L1346.78 115.88L1341.28 116.745L1382.1 266.805C1373.05 261.931 1359.13 266.112 1347.41 275.914C1334.12 288.286 1329.87 305.531 1338.56 314.441C1347.25 323.35 1365.08 320.873 1378.38 308.502C1390.22 297.355 1394.22 282.799 1389.69 272.904L1366.08 188.1C1374.03 190.164 1380.63 192.108 1388.58 194.173C1400.44 197.941 1413.64 201.83 1419.28 214.535C1426.15 228.705 1426.17 243.62 1423.87 254.26C1423.75 255.606 1422.28 256.831 1423.63 256.951C1426.32 257.19 1426.68 253.155 1426.8 251.81C1428.74 245.205 1429.46 237.134 1427.49 228.824C1428.33 219.409 1423.67 210.859 1418.89 203.655ZM1412.77 196.33C1412.65 197.675 1411.43 196.21 1411.55 194.865C1402.74 187.301 1391 182.187 1380.61 177.193C1371.56 172.319 1362.75 164.754 1356.86 154.74L1354.78 147.775C1366.63 151.544 1378.49 155.313 1388.77 161.652C1400.39 168.111 1410.3 178.485 1412.77 196.33Z" fill="#E9DAA8" fill-opacity="0.31"/>
<path d="M943.006 511.002L942.886 512.347C942.886 512.347 942.767 513.692 941.422 513.572C939.718 517.487 937.894 522.747 937.414 528.128C936.935 533.508 939.263 537.783 941.592 542.057C943.921 546.332 946.369 549.262 948.698 553.537C949.802 556.347 952.251 559.277 951.891 563.312L951.651 566.002L954.34 566.242L972.915 494.688C975.243 498.963 981.845 500.907 988.806 498.817C997.111 496.846 1003.09 490.6 1002.22 485.1C1001.48 478.255 993.653 474.845 985.348 476.816C978.387 478.907 972.53 483.808 972.05 489.188L961.731 528.94C959.282 526.01 956.834 523.08 954.385 520.151C950.712 515.756 945.695 511.241 946.295 504.516C946.894 497.791 950.182 491.305 954.695 486.285C954.695 486.285 956.159 485.059 954.815 484.94C953.351 486.165 951.886 487.39 950.542 487.27C947.614 489.721 946.03 492.291 944.326 496.206C943.846 501.586 943.366 506.966 943.006 511.002ZM943.991 515.157C946.2 520.776 949.753 526.516 952.081 530.791C954.41 535.066 956.739 539.341 956.139 546.066L955.779 550.101C952.106 545.706 947.089 541.192 944.88 535.572C942.672 529.952 940.583 522.987 943.991 515.157Z" fill="#E9DAA8" fill-opacity="0.31"/>
<path d="M527.974 530.934C527.974 530.934 527.854 532.279 527.974 530.934C527.854 532.279 527.734 533.624 527.734 533.624C526.03 537.54 524.326 541.455 525.431 544.265C525.071 548.3 526.175 551.11 528.624 554.04C529.728 556.85 532.177 559.78 533.281 562.59C534.506 564.054 535.61 566.864 535.37 569.555L535.13 572.245L536.474 572.364L550.921 516.712C553.37 519.641 558.627 521.466 564.124 520.6C570.965 519.855 575.478 514.834 574.613 509.334C573.629 505.179 567.147 501.89 561.531 504.1C556.034 504.966 551.521 509.986 551.281 512.676L541.562 545.703C538.993 544.118 537.889 541.309 535.32 539.724C532.872 536.794 529.199 532.399 529.678 527.019C530.158 521.639 533.326 516.498 536.255 514.048C536.255 514.048 537.719 512.823 536.375 512.703C535.03 512.583 534.91 513.928 533.566 513.808C531.982 516.379 530.518 517.604 528.934 520.174C528.574 524.209 528.214 528.244 527.974 530.934ZM528.959 535.089C531.287 539.364 533.616 543.639 536.065 546.569C538.513 549.499 539.498 553.654 539.138 557.689L538.898 560.379C535.105 557.329 532.777 553.054 530.328 550.125C527.999 545.85 525.671 541.575 528.959 535.089Z" fill="#E9DAA8" fill-opacity="0.31"/>
<path d="M441.602 466.292L457.873 405.378L456.529 405.259L441.842 463.602C439.393 460.672 434.136 458.847 428.639 459.713C421.798 460.459 417.286 465.479 418.15 470.979C419.135 475.134 425.616 478.424 431.233 476.213C436.85 474.002 441.242 470.327 441.602 466.292Z" fill="#E9DAA8" fill-opacity="0.31"/>
<path d="M414.092 455.704L449.043 458.821L448.803 461.511L413.853 458.394L414.092 455.704Z" fill="#E9DAA8" fill-opacity="0.31"/>
<path d="M416.396 445.064L451.346 448.18L451.106 450.87L416.156 447.754L416.396 445.064Z" fill="#E9DAA8" fill-opacity="0.31"/>
<path d="M186.365 472.003L185.161 409.531L183.817 409.411L185.261 469.193C182.692 467.608 180.004 467.368 175.731 469.699C171.458 472.029 169.754 475.944 170.859 478.754C171.963 481.564 177.34 482.044 181.613 479.713C185.765 478.728 187.469 474.813 186.365 472.003Z" fill="#E9DAA8" fill-opacity="0.31"/>
<path d="M246.591 465.171L245.387 402.7L244.043 402.58L245.487 462.361C242.919 460.777 240.23 460.537 235.957 462.867C231.685 465.198 229.981 469.113 231.085 471.923C232.189 474.733 237.566 475.213 241.839 472.882C244.648 471.777 247.696 467.981 246.591 465.171Z" fill="#E9DAA8" fill-opacity="0.31"/>
<path d="M207.583 446.78L206.789 410.104L205.445 409.984L206.359 445.315C203.791 443.73 201.102 443.49 196.829 445.821C192.557 448.151 190.853 452.067 191.957 454.877C193.062 457.687 198.439 458.166 202.711 455.835C205.759 452.04 207.344 449.47 207.583 446.78Z" fill="#E9DAA8" fill-opacity="0.31"/>
<path d="M228.707 437.818L227.313 407.867L225.968 407.747L226.138 436.233C223.57 434.648 220.881 434.408 216.609 436.739C212.336 439.069 210.632 442.985 211.736 445.795C212.841 448.604 218.218 449.084 222.49 446.753C228.227 443.198 229.811 440.628 228.707 437.818Z" fill="#E9DAA8" fill-opacity="0.31"/>
<path d="M183.816 409.411L244.043 402.58L243.563 407.96L184.681 414.911L183.816 409.411Z" fill="#E9DAA8" fill-opacity="0.31"/>
<path d="M184.322 418.946L206.19 416.829L207.174 420.984L183.962 422.982L184.322 418.946Z" fill="#E9DAA8" fill-opacity="0.31"/>
<path d="M168.29 477.17L193.086 472.602L192.966 473.947L168.17 478.515L168.29 477.17Z" fill="#E9DAA8" fill-opacity="0.31"/>
<path d="M131.897 414.272L140.033 383.815L138.689 383.695L130.673 412.807C129.449 411.342 126.88 409.757 124.072 410.863C121.383 410.623 118.455 413.073 119.559 415.883C120.664 418.693 123.352 418.933 126.041 419.173C128.849 418.067 131.777 415.617 131.897 414.272Z" fill="#E9DAA8" fill-opacity="0.31"/>
<path d="M148.748 407.64L154.699 386.479L153.355 386.359L147.523 406.175C146.299 404.71 143.731 403.125 140.922 404.231C138.114 405.336 135.185 407.786 134.945 410.476C136.05 413.286 138.738 413.526 141.427 413.766C145.699 411.435 148.628 408.985 148.748 407.64Z" fill="#E9DAA8" fill-opacity="0.31"/>
<path d="M112.118 423.354L124.262 378.342L122.917 378.222L112.238 422.009C111.014 420.544 108.445 418.959 105.637 420.065C102.828 421.17 99.9001 423.62 99.6602 426.311C100.765 429.12 103.453 429.36 106.142 429.6C108.95 428.495 111.878 426.044 112.118 423.354Z" fill="#E9DAA8" fill-opacity="0.31"/>
<path d="M1110.72 483.928L1108.58 371.211L1104.54 370.851L1105.82 478.069C1102.15 473.674 1092.74 472.835 1084.2 477.496C1074.19 483.382 1067.85 493.663 1072.63 500.868C1076.06 507.953 1088.16 509.031 1099.39 504.61C1106.59 499.829 1112.81 490.893 1110.72 483.928Z" fill="#E9DAA8" fill-opacity="0.31"/>
<path d="M1166 365.484L1125.42 212.735L1122.61 213.84L1160.98 360.97C1154.5 357.68 1146.19 359.651 1137.41 367.002C1128.5 375.699 1126.2 386.339 1131.1 392.199C1135.99 398.058 1148.33 396.447 1157.12 389.096C1165.9 381.745 1169.43 372.569 1166 365.484Z" fill="#E9DAA8" fill-opacity="0.31"/>
<path d="M1309.49 321.339L1268.91 168.589L1266.11 169.694L1304.47 316.824C1297.99 313.535 1289.69 315.506 1280.9 322.857C1272 331.553 1269.69 342.194 1274.59 348.053C1279.49 353.913 1291.83 352.302 1300.61 344.95C1309.4 337.599 1313.04 327.079 1309.49 321.339Z" fill="#E9DAA8" fill-opacity="0.31"/>
<path d="M1200.7 295.369L1176.36 203.719L1173.55 204.825L1195.69 290.855C1189.2 287.565 1180.9 289.536 1172.11 296.887C1163.21 305.583 1160.91 316.224 1165.8 322.083C1170.7 327.943 1183.04 326.332 1191.82 318.981C1200.61 311.63 1204.26 301.109 1200.7 295.369Z" fill="#E9DAA8" fill-opacity="0.31"/>
<path d="M1252.21 264.713L1233.15 189.803L1230.34 190.908L1248.66 258.973C1242.18 255.684 1233.87 257.655 1225.09 265.006C1216.18 273.702 1213.88 284.343 1218.78 290.202C1223.67 296.062 1236.01 294.451 1244.8 287.099C1252.12 280.974 1255.77 270.453 1252.21 264.713Z" fill="#E9DAA8" fill-opacity="0.31"/>
<path d="M1127.89 230.58L1122.73 212.495L1266.95 160.279L1270.88 176.899L1127.89 230.58Z" fill="#E9DAA8" fill-opacity="0.31"/>
<path d="M1133.8 255.51L1129.86 238.89L1274.2 185.329L1278.13 201.949L1133.8 255.51Z" fill="#E9DAA8" fill-opacity="0.31"/>
<path d="M494.003 456.051L486.342 405.205L484.998 405.085L491.554 453.121C488.985 451.536 484.833 452.522 480.56 454.852C476.168 458.528 474.464 462.443 476.912 465.373C479.361 468.303 484.738 468.782 489.13 465.107C493.283 464.121 495.107 458.861 494.003 456.051Z" fill="#E9DAA8" fill-opacity="0.31"/>
<path d="M646.693 430.35L641.671 349.913L640.327 349.793L645.589 427.54C643.02 425.955 637.643 425.475 633.371 427.806C627.634 431.362 625.81 436.622 628.258 439.552C630.587 443.827 636.084 442.961 641.701 440.75C645.973 438.42 647.797 433.16 646.693 430.35Z" fill="#E9DAA8" fill-opacity="0.31"/>
<path d="M723.41 420.921L718.388 340.485L717.043 340.365L722.305 418.111C719.737 416.527 714.36 416.047 710.087 418.378C704.35 421.933 702.526 427.194 704.975 430.123C707.304 434.398 712.801 433.533 718.417 431.322C722.69 428.992 724.394 425.076 723.41 420.921Z" fill="#E9DAA8" fill-opacity="0.31"/>
<path d="M671.319 397.296L667.572 348.156L666.227 348.036L668.991 393.022C666.422 391.437 661.045 390.957 656.772 393.288C651.036 396.843 649.212 402.104 651.66 405.034C653.989 409.308 659.486 408.443 665.103 406.232C670.6 405.367 672.304 401.451 671.319 397.296Z" fill="#E9DAA8" fill-opacity="0.31"/>
<path d="M700.627 387.708L697.384 348.102L696.04 347.982L698.179 384.778C695.61 383.193 690.233 382.714 685.961 385.044C680.224 388.6 678.4 393.86 680.849 396.79C683.177 401.065 688.674 400.199 694.291 397.989C698.564 395.658 701.732 390.518 700.627 387.708Z" fill="#E9DAA8" fill-opacity="0.31"/>
<path d="M640.952 357.983L640.447 348.448L717.404 336.33L718.029 344.52L640.952 357.983Z" fill="#E9DAA8" fill-opacity="0.31"/>
<path d="M642.44 371.674L641.936 362.138L718.892 350.02L719.517 358.21L642.44 371.674Z" fill="#E9DAA8" fill-opacity="0.31"/>
<path d="M990.574 387.803L1011.33 306.954L1008.64 306.714L988.246 383.528C985.917 379.253 979.316 377.309 972.355 379.4C964.049 381.371 958.073 387.616 960.281 393.236C961.146 398.736 968.972 402.146 977.277 400.175C985.582 398.204 991.439 393.303 990.574 387.803Z" fill="#E9DAA8" fill-opacity="0.31"/>
<path d="M974.353 385.161C967.824 386.701 962.946 389.714 963.459 391.892C963.972 394.07 969.681 394.587 976.21 393.047C982.739 391.507 987.617 388.493 987.104 386.316C986.591 384.138 980.882 383.621 974.353 385.161Z" fill="#E9DAA8" fill-opacity="0.31"/>
<path d="M901.453 407.527L880.559 402.074L877.492 413.834L898.386 419.287L901.453 407.527Z" fill="#E9DAA8" fill-opacity="0.31"/>
<path d="M828.67 456.067L849.309 376.562L846.62 376.323L826.341 451.792C824.013 447.517 817.411 445.573 811.795 447.783C803.489 449.754 798.977 454.775 799.841 460.275C800.706 465.775 808.531 469.184 815.492 467.093C823.798 465.122 828.19 461.447 828.67 456.067Z" fill="#E9DAA8" fill-opacity="0.31"/>
<path d="M923.896 482.183L944.774 399.988L942.086 399.749L921.567 477.908C919.238 473.633 912.637 471.688 907.02 473.899C898.715 475.87 894.203 480.891 895.067 486.391C895.932 491.891 903.757 495.3 910.718 493.209C917.679 491.118 923.416 487.563 923.896 482.183Z" fill="#E9DAA8" fill-opacity="0.31"/>
<path d="M891.824 446.785L906.271 391.132L903.583 390.892L889.495 442.51C887.167 438.235 880.566 436.291 874.949 438.502C866.643 440.472 862.131 445.493 862.995 450.993C863.86 456.493 871.685 459.902 878.647 457.812C886.952 455.841 891.344 452.165 891.824 446.785Z" fill="#E9DAA8" fill-opacity="0.31"/>
<path d="M944.957 400.312L847.016 374.771L843.952 386.531L941.892 412.072L944.957 400.312Z" fill="#E9DAA8" fill-opacity="0.31"/>
<path d="M308.208 412.369L297.019 370.699L295.675 370.579L307.104 409.559C304.535 407.974 301.727 409.08 298.798 411.53C295.87 413.98 294.166 417.896 296.614 420.825C299.183 422.41 303.216 422.77 306.264 418.974C307.728 417.749 309.312 415.179 308.208 412.369Z" fill="#E9DAA8" fill-opacity="0.31"/>
<path d="M356.696 400.424L345.627 357.409L344.283 357.289L355.591 397.614C353.023 396.029 350.214 397.134 347.286 399.585C344.358 402.035 342.654 405.95 345.102 408.88C347.671 410.465 351.703 410.825 354.752 407.029C357.56 405.924 357.92 401.889 356.696 400.424Z" fill="#E9DAA8" fill-opacity="0.31"/>
<path d="M383.341 405.511C383.221 406.856 381.757 408.081 380.293 409.307C377.245 413.102 372.972 415.432 368.819 416.418C366.011 417.523 360.634 417.044 356.601 416.684C352.688 414.98 350.12 413.395 350.12 413.395C350.12 413.395 352.688 414.98 356.721 415.339C360.754 415.699 364.787 416.058 367.595 414.953C371.748 413.968 376.02 411.637 378.949 409.187C380.413 407.962 381.877 406.736 383.341 405.511L383.461 404.166C383.461 404.166 383.341 405.511 383.341 405.511Z" fill="#E9DAA8" fill-opacity="0.31"/>
<path d="M345.641 357.897L294.881 371.824L296.308 377.033L347.068 363.106L345.641 357.897Z" fill="#E9DAA8" fill-opacity="0.31"/>
<path d="M347.452 366.715L337.04 369.573L338.467 374.782L348.88 371.924L347.452 366.715Z" fill="#E9DAA8" fill-opacity="0.31"/>
<path d="M407.229 350.52L396.815 353.371L398.239 358.581L408.653 355.73L407.229 350.52Z" fill="#E9DAA8" fill-opacity="0.31"/>
<path d="M387.349 390.955L376.161 349.285L374.817 349.166L386.245 388.145C383.676 386.561 380.868 387.666 377.94 390.116C375.011 392.567 373.307 396.482 375.756 399.412C378.324 400.997 382.357 401.356 385.405 397.561C388.214 396.455 388.454 393.765 387.349 390.955Z" fill="#E9DAA8" fill-opacity="0.31"/>
<path d="M437.301 377.785L426.232 334.77L424.888 334.65L436.197 374.975C433.628 373.39 430.82 374.496 427.891 376.946C424.963 379.396 423.259 383.312 425.708 386.241C428.276 387.826 432.309 388.186 435.357 384.39C438.046 384.63 438.405 380.595 437.301 377.785Z" fill="#E9DAA8" fill-opacity="0.31"/>
<path d="M413.585 370.247L405.349 341.042L404.005 340.923L411.136 367.317C408.567 365.733 405.759 366.838 402.831 369.288C399.902 371.739 399.542 375.774 400.647 378.584C403.215 380.169 407.248 380.528 410.296 376.733C414.449 375.747 414.689 373.057 413.585 370.247Z" fill="#E9DAA8" fill-opacity="0.31"/>
<path d="M425.921 335.133L375.161 349.054L376.587 354.263L427.347 340.342L425.921 335.133Z" fill="#E9DAA8" fill-opacity="0.31"/>
<path d="M139.148 439.322L128.589 481.764L129.933 481.884L140.252 442.132C141.477 443.597 145.39 445.301 149.542 444.316C153.695 443.331 156.743 439.535 156.983 436.845C155.879 434.035 151.966 432.33 147.813 433.316C142.316 434.182 139.388 436.632 139.148 439.322Z" fill="#E9DAA8" fill-opacity="0.31"/>
<path d="M736.637 439.726L720.485 499.294L721.83 499.414L736.397 442.416C738.845 445.346 744.102 447.17 748.255 446.185C755.096 445.439 759.609 440.418 758.624 436.263C757.64 432.108 751.158 428.819 745.542 431.03C741.389 432.015 736.876 437.036 736.637 439.726Z" fill="#E9DAA8" fill-opacity="0.31"/>
<path d="M729.436 444.507L764.386 447.623L764.147 450.313L729.196 447.197L729.436 444.507Z" fill="#E9DAA8" fill-opacity="0.31"/>
<path d="M727.131 455.147L762.202 456.918L761.962 459.609L726.891 457.837L727.131 455.147Z" fill="#E9DAA8" fill-opacity="0.31"/>
<path d="M496.381 490.156L477.927 560.365L480.615 560.605L497.366 494.311C499.814 497.241 505.071 499.066 510.568 498.2C517.529 496.109 522.042 491.089 521.177 485.589C520.313 480.089 513.712 478.144 506.871 478.89C501.254 481.101 496.861 484.776 496.381 490.156Z" fill="#E9DAA8" fill-opacity="0.31"/>
<path d="M489.061 496.282L526.819 498.293L526.58 500.984L488.821 498.972L489.061 496.282Z" fill="#E9DAA8" fill-opacity="0.31"/>
<path d="M485.412 506.803L524.395 510.279L524.155 512.969L485.052 510.838L485.412 506.803Z" fill="#E9DAA8" fill-opacity="0.31"/>
<path d="M1025.72 434.321L1048.54 345.521L1045.85 345.281L1024.86 428.821C1021.18 424.426 1014.58 422.482 1006.28 424.453C996.626 426.304 990.53 433.894 991.274 440.74C992.019 447.585 1001.19 451.114 1010.84 449.263C1019.26 445.947 1025.24 439.701 1025.72 434.321Z" fill="#E9DAA8" fill-opacity="0.31"/>
<path d="M985.007 419.844L1036.21 423.054L1035.85 427.089L984.647 423.88L985.007 419.844Z" fill="#E9DAA8" fill-opacity="0.31"/>
<path d="M989.015 405.289L1040.22 408.499L1039.98 411.189L988.775 407.979L989.015 405.289Z" fill="#E9DAA8" fill-opacity="0.31"/>
<path d="M562.704 475.734L563.804 402.622L562.46 402.502L561.6 472.924C559.151 469.994 553.654 470.86 549.382 473.191C543.765 475.401 540.477 481.887 542.925 484.817C545.254 489.091 550.631 489.571 556.368 486.015C560.641 483.685 562.345 479.769 562.704 475.734Z" fill="#E9DAA8" fill-opacity="0.31"/>
<path d="M606.27 443.014L606.315 396.923L604.971 396.803L605.166 440.204C602.717 437.274 597.22 438.14 592.948 440.47C587.331 442.681 584.043 449.166 586.491 452.096C588.82 456.371 594.197 456.85 599.934 453.295C604.086 452.309 607.255 447.169 606.27 443.014Z" fill="#E9DAA8" fill-opacity="0.31"/>
<path d="M560.395 410.453L561.235 401.037L606.675 392.888L605.835 402.303L560.395 410.453Z" fill="#E9DAA8" fill-opacity="0.31"/>
<path d="M366.3 444.664L349.55 510.957L350.894 511.077L367.405 447.474C369.853 450.404 375.11 452.228 380.607 451.362C387.568 449.272 392.081 444.251 391.096 440.096C390.112 435.941 383.631 432.652 376.67 434.742C371.053 436.953 366.66 440.629 366.3 444.664Z" fill="#E9DAA8" fill-opacity="0.31"/>
<path d="M380.925 448.229C386.003 447.031 389.704 444.294 389.191 442.117C388.678 439.939 384.146 439.145 379.067 440.343C373.989 441.541 370.288 444.278 370.801 446.455C371.314 448.633 375.847 449.427 380.925 448.229Z" fill="#E9DAA8" fill-opacity="0.31"/>
<path d="M3.50339 501.793C17.9053 492.231 34.636 486.944 50.0223 481.537C72.3698 474.04 96.0615 466.662 119.273 464.665C134.3 463.293 160.081 462.881 165.123 482.311C169.18 497.586 155.283 516.682 168.99 530.106C178.905 540.481 199.668 535.553 212.246 531.252C234.474 525.1 254.372 514.672 274.271 504.245C289.898 496.148 304.18 487.931 319.806 479.835C353.747 463.881 394.529 447.181 431.328 459.953C452.356 467.251 465.704 484.71 473.434 504.38C480.181 519.894 486.927 535.409 499.29 548.713C524.016 575.321 566.767 566.932 596.435 553.308C650.155 528.272 686.47 470.502 748.16 462.445C764.651 459.849 780.662 462.632 796.433 468.105C814.773 475.164 831.049 490.173 844.756 503.596C859.808 517.14 875.219 526.649 893.559 533.707C912.018 539.42 930.838 541.099 950.017 538.742C990.944 535.612 1030.38 518.793 1067.13 501.734C1106.57 484.914 1143.68 463.82 1182.01 444.19C1204.72 432.658 1228.77 421.245 1251.6 408.367C1275.77 395.61 1300.06 381.507 1323.01 367.284C1370.13 340.303 1416.02 311.858 1465.59 287.807L1465.71 286.462C1385.01 325.361 1311.41 375.74 1233.16 417.569C1194.83 437.199 1156.5 456.828 1118.28 475.113C1079.95 494.742 1040.39 512.907 998.624 525.451C956.858 537.996 910.314 543.336 871.666 520.909C854.91 511.281 841.323 496.512 826.152 484.313C812.324 472.234 796.793 464.07 779.438 461.167C720.891 449.168 674.781 495.219 632.56 528.059C602.052 551.098 565.063 570.847 525.335 560.526C482.919 549.965 480.516 500.944 454.445 474.216C412.339 429.789 340.184 464.027 295.994 488.557C276.095 498.985 256.196 509.412 236.418 518.494C219.447 526.471 196.98 535.314 176.936 532.171C154.324 527.443 164.788 501.261 164.763 486.346C164.738 471.43 153.239 463.626 139.917 461.083C113.152 457.34 85.3076 465.703 60.1517 474.306C41.8369 482.163 19.4894 489.661 3.50339 501.793C2.15914 501.673 2.03921 503.018 3.50339 501.793Z" fill="#E9DAA8" fill-opacity="0.31"/>
<path d="M6.0477 488.462C19.1054 478.78 35.836 473.494 51.2224 468.087C72.3456 459.125 95.9173 453.092 119.249 449.749C134.276 448.378 158.832 446.5 163.874 465.93C167.932 481.205 154.035 500.302 167.742 513.726C177.656 524.1 198.54 517.828 209.653 514.752C230.537 508.48 250.435 498.052 270.334 487.625C284.616 479.408 298.898 471.192 314.525 463.095C347.121 447.021 387.903 430.321 423.478 441.628C443.162 448.806 456.51 466.265 465.705 484.71C472.451 500.225 479.197 515.739 491.68 527.698C516.526 552.961 559.277 544.572 587.601 530.829C639.977 505.673 674.947 447.782 735.293 439.606C751.784 437.009 767.795 439.793 783.566 445.266C801.906 452.325 816.957 465.868 832.009 479.412C847.18 491.611 862.472 502.465 881.051 506.833C899.511 512.546 918.45 512.879 936.165 511.747C975.868 507.153 1015.31 490.334 1050.71 473.155C1088.92 454.87 1124.57 435.001 1161.56 415.252C1184.27 403.719 1206.97 392.187 1229.8 379.309C1253.97 366.551 1276.92 352.328 1299.87 338.106C1345.76 309.66 1390.19 282.44 1438.41 258.269L1438.53 256.924C1360.52 296.063 1289.62 346.682 1212.71 388.631C1175.72 408.38 1138.73 428.129 1101.74 447.879C1064.75 467.628 1026.54 485.912 985.997 499.922C945.455 513.931 900.375 518.046 861.607 496.965C844.852 487.336 831.144 473.912 815.973 461.713C802.026 450.98 786.495 442.816 769.139 439.913C711.937 428.033 667.052 475.549 626.174 508.509C597.011 531.668 560.021 551.417 522.862 542.681C480.326 533.465 477.803 485.789 451.733 459.061C409.506 415.979 339.92 451.802 297.194 475.107C278.64 485.654 258.741 496.081 238.962 505.164C221.991 513.141 200.748 523.448 180.824 518.96C158.212 514.232 168.556 489.395 168.532 474.48C168.507 459.565 157.008 451.761 143.566 450.562C115.576 445.355 86.2678 454.943 62.576 462.321C44.3812 468.833 22.0338 476.33 6.0477 488.462C4.70346 488.342 5.92777 489.807 6.0477 488.462Z" fill="#E9DAA8" fill-opacity="0.31"/>
<path d="M9.81506 476.596C22.8728 466.915 38.2591 461.508 53.7654 454.756C74.8886 445.794 97.2361 438.296 119.104 436.179C134.25 433.462 158.687 432.93 163.849 451.015C167.906 466.29 155.473 484.161 169.18 497.585C179.095 507.96 198.634 501.567 209.868 497.146C230.751 490.874 249.306 480.327 269.204 469.899C283.486 461.683 297.768 453.466 312.05 445.249C343.303 429.056 382.861 410.891 418.316 423.543C438 430.721 451.467 446.835 460.662 465.28C467.528 479.449 474.274 494.964 486.757 506.923C511.723 530.841 553.13 522.332 580.11 508.469C631.141 483.193 664.647 426.528 722.545 415.422C737.691 412.705 753.822 414.143 769.593 419.617C788.053 425.33 802.985 440.219 818.276 451.073C833.447 463.271 847.514 472.66 865.974 478.373C883.089 483.967 902.029 484.3 919.864 481.823C958.222 477.109 996.436 458.825 1031.72 442.991C1068.59 424.586 1104.24 404.717 1139.88 384.848C1161.24 373.196 1183.95 361.663 1205.43 348.665C1228.26 335.788 1251.33 320.22 1272.93 305.877C1317.48 277.312 1360.69 248.627 1407.45 225.681L1407.57 224.336C1330.9 263.595 1262.56 315.799 1188.34 357.987C1152.7 377.856 1115.71 397.606 1080.06 417.475C1043.07 437.224 1006.09 456.974 966.887 471.103C927.69 485.232 882.49 490.692 844.946 471.075C828.07 462.792 814.363 449.368 800.536 437.289C786.589 426.555 772.282 419.857 754.927 416.953C697.604 406.419 655.407 454.174 615.995 485.909C588.175 509.188 552.53 529.057 515.251 521.666C474.059 512.57 470.072 466.119 443.881 440.736C401.535 398.999 334.638 435.062 293.136 459.832C274.581 470.379 256.027 480.926 236.128 491.353C219.157 499.33 197.914 509.638 179.215 506.615C157.827 503.352 166.827 478.395 166.802 463.48C166.777 448.564 155.159 442.105 141.716 440.907C116.175 438.629 89.5554 448.457 65.8636 455.835C45.4601 456.727 25.9211 463.119 9.81506 476.596C8.47081 476.476 9.81506 476.596 9.81506 476.596Z" fill="#E9DAA8" fill-opacity="0.31"/>
<path d="M12.3584 463.266C25.4161 453.584 40.8025 448.177 54.9646 441.306C76.0877 432.343 97.0909 424.726 119.079 421.264C134.225 418.547 157.317 417.895 162.479 435.98C166.657 449.909 154.104 469.126 167.931 481.205C177.965 490.234 197.504 483.842 208.618 480.766C228.157 474.374 248.176 462.601 265.386 451.934C279.668 443.718 292.606 435.381 306.888 427.165C336.796 410.851 376.354 392.687 411.929 403.993C431.733 409.826 445.2 425.94 454.515 443.04C461.381 457.209 469.592 471.499 480.73 483.338C505.696 507.256 545.879 497.282 572.859 483.419C622.546 458.023 653.364 401.118 711.261 390.012C726.408 387.295 742.539 388.734 756.965 394.088C775.425 399.801 790.477 413.345 804.424 424.078C818.371 434.812 833.782 444.321 852.242 450.034C869.477 454.283 888.416 454.616 906.251 452.139C944.61 447.425 981.479 429.02 1014.2 411.602C1049.72 393.077 1084.14 371.743 1119.79 351.874C1141.15 340.222 1162.51 328.569 1184 315.572C1206.94 301.349 1228.55 287.006 1250.15 272.664C1293.35 243.979 1335.22 215.174 1379.41 190.643L1379.53 189.298C1305.55 228.797 1238.56 281.12 1167.03 323.549C1132.72 343.538 1097.08 363.407 1061.43 383.276C1025.79 403.145 990.144 423.014 950.946 437.144C913.092 451.393 869.117 458.318 831.573 438.701C814.698 430.418 800.991 416.994 787.043 406.26C773.096 395.526 758.789 388.827 741.434 385.924C685.336 376.854 644.603 423.385 606.415 456.585C578.595 479.863 544.295 499.852 508.36 492.581C468.392 484.949 463.06 438.379 436.75 414.341C394.284 373.949 328.731 410.132 288.573 435.022C271.363 445.689 252.688 457.581 234.254 466.783C218.628 474.88 197.384 485.187 178.685 482.164C157.297 478.901 164.953 453.825 164.808 440.254C164.783 425.339 153.164 418.88 139.722 417.681C114.181 415.404 87.5613 425.232 65.0939 434.075C48.0035 443.396 27.0002 451.014 12.3584 463.266C11.0142 463.146 12.3584 463.266 12.3584 463.266Z" fill="#E9DAA8" fill-opacity="0.31"/>
<path d="M14.7818 451.28C26.4952 441.479 41.8816 436.072 56.0437 429.2C77.1668 420.238 98.1701 412.62 118.813 409.038C132.616 406.202 157.172 404.324 162.334 422.409C166.512 436.339 155.303 455.676 169.25 466.41C179.284 475.439 197.479 468.927 208.713 464.505C228.372 456.768 246.926 446.221 264.137 435.554C277.075 427.217 290.132 417.536 304.294 410.664C334.323 393.006 371.072 375.947 406.767 385.908C426.571 391.741 440.158 406.51 449.473 423.61C457.683 437.899 464.549 452.069 475.808 462.563C500.894 485.136 539.732 475.042 566.712 461.179C615.175 434.318 644.528 378.639 701.082 367.412C716.228 364.696 731.015 366.014 745.562 370.023C764.021 375.736 777.848 387.815 793.14 398.669C807.087 409.403 822.498 418.911 839.734 423.16C856.969 427.408 874.564 427.621 892.399 425.144C929.533 418.965 965.058 400.441 997.775 383.022C1031.96 364.378 1066.38 343.044 1099.33 322.935C1119.35 311.163 1140.83 298.166 1160.97 285.048C1182.58 270.706 1204.18 256.363 1224.44 241.901C1266.3 213.096 1306.82 184.171 1351.01 159.641L1351.13 158.295C1279.72 199.379 1214.19 250.477 1145.35 293.145C1112.27 314.599 1078.09 333.243 1043.67 354.577C1009.37 374.566 973.723 394.435 937.214 408.804C899.36 423.054 858.073 430.218 818.945 413.172C802.07 404.888 789.587 392.929 774.295 382.075C760.228 372.687 745.921 365.988 729.91 363.204C675.036 355.6 635.648 402.25 598.924 434.225C572.448 457.623 539.492 477.732 502.093 471.686C462.006 465.399 456.554 420.174 431.588 396.256C389.002 357.209 326.017 394.977 287.204 419.986C269.994 430.653 252.663 442.665 234.229 451.867C218.602 459.964 198.703 470.392 181.348 467.488C159.96 464.225 167.496 440.494 167.351 426.924C167.206 413.353 155.588 406.894 142.145 405.696C117.949 403.538 91.3289 413.366 70.0858 423.674C49.0826 431.291 29.4236 439.028 14.7818 451.28C13.4375 451.16 14.7818 451.28 14.7818 451.28Z" fill="#E9DAA8" fill-opacity="0.31"/>
</svg>
