<svg width="36" height="36" viewBox="0 0 36 36" fill="none" xmlns="http://www.w3.org/2000/svg">
<circle cx="18" cy="18" r="18" fill="#D70672"/>
<g clip-path="url(#clip0)">
<path d="M17 18C19.2094 18 21 16.2094 21 14C21 11.7906 19.2094 10 17 10C14.7906 10 13 11.7906 13 14C13 16.2094 14.7906 18 17 18ZM19.8 19H19.2781C18.5844 19.3188 17.8125 19.5 17 19.5C16.1875 19.5 15.4188 19.3188 14.7219 19H14.2C11.8813 19 10 20.8813 10 23.2V24.5C10 25.3281 10.6719 26 11.5 26H20.0906C20.0156 25.7875 19.9844 25.5625 20.0094 25.3344L20.2219 23.4312L20.2594 23.0844L20.5063 22.8375L22.9219 20.4219C22.1563 19.5562 21.0469 19 19.8 19ZM21.2156 23.5406L21.0031 25.4469C20.9688 25.7656 21.2375 26.0344 21.5531 25.9969L23.4563 25.7844L27.7656 21.475L25.525 19.2344L21.2156 23.5406ZM29.7813 18.4031L28.5969 17.2188C28.3063 16.9281 27.8313 16.9281 27.5406 17.2188L26.3594 18.4L26.2313 18.5281L28.475 20.7688L29.7813 19.4625C30.0719 19.1687 30.0719 18.6969 29.7813 18.4031Z" fill="white"/>
</g>
<defs>
<clipPath id="clip0">
<rect width="20" height="16" fill="white" transform="translate(10 10)"/>
</clipPath>
</defs>
</svg>
