<svg width="277" height="227" viewBox="0 0 277 227" fill="none" xmlns="http://www.w3.org/2000/svg">
<g clip-path="url(#clip0)">
<path d="M195.183 95.2496C195.495 90.6849 199.466 86.9897 202.05 83.2742C203.129 81.9845 203.129 81.9845 202.09 80.5006C201.532 79.5949 200.975 78.6892 200.744 77.7067C199.956 75.8185 199.495 73.8535 199.766 72.0624C200.543 63.588 210.082 58.5872 217.436 63.4274C218.516 62.1377 219.519 60.5205 220.598 59.2308C221.176 58.7497 222.584 57.3832 222.353 56.4007C221.488 54.185 220.874 51.565 220.664 49.1956C220.341 43.3977 221.732 37.5433 225.473 32.8656C227.381 30.6905 229.617 28.4387 232.007 26.8418C234.474 25.5724 235.339 27.7881 235.876 30.0806C237.182 35.6481 234.885 42.0604 231.876 46.912C230.873 48.5292 227.404 51.4158 228.192 53.304C229.134 55.8472 230.153 58.7179 230.767 61.3379C232.246 66.1736 232.897 71.8948 230.871 76.516C226.394 86.8945 213.12 90.6982 204.419 83.0641C201.431 86.5289 196.303 91.1863 196.8 96.2524C196.934 98.2942 198.377 100.029 200.071 101.359C201.361 102.439 204.442 103.789 205.772 102.095C201.632 100.648 201.636 94.7729 205.817 93.4471C209.998 92.1212 213.115 96.5729 211.59 100.385C209.099 108.916 194.657 103.32 195.183 95.2496ZM227.097 50.1058L227.173 50.4333C229.583 47.4496 231.512 43.8877 231.978 39.978C232.172 37.8594 232.176 31.9847 228.825 32.4252C226.128 32.712 225.161 37.4303 224.967 39.549C224.752 43.0544 225.597 46.6569 227.097 50.1058ZM205.98 82.3526C209.368 85.0133 214.491 86.2306 218.672 84.9047C228.343 81.9458 227.851 71.0049 225.025 63.3753C224.314 61.8146 223.602 60.2539 222.891 58.6932C221.811 59.9829 221.059 61.1958 219.979 62.4855C219.15 63.3709 217.994 64.3331 218.879 65.162C220.323 66.8966 221.111 68.7848 221.321 71.1541C221.992 75.4884 219.408 79.2039 215.304 80.8573C214.649 81.0109 209.736 82.1629 210.411 80.6225C210.585 79.8907 214.014 79.7777 214.997 79.5473C218.62 77.3157 218.046 71.9221 214.985 69.1847C213.077 71.3598 211.572 73.7855 209.664 75.9606C208.584 77.2503 207.832 78.4632 206.752 79.7529C206.578 80.4847 205.094 81.5237 205.98 82.3526ZM204.209 80.6948C207.371 76.4982 210.861 72.2248 214.023 68.0283C214.274 67.624 209.632 66.9848 209.305 67.0616C207.34 67.5224 205.779 68.2339 204.372 69.6004C201.711 72.9884 201.727 77.4763 204.209 80.6948Z" fill="black" fill-opacity="0.37"/>
<path d="M19.4643 109.159L19.3875 108.831C19.3875 108.831 19.06 108.908 18.9832 108.58C17.8471 108.156 17.0385 107.654 16.4806 106.749C15.9227 105.843 15.3648 104.937 15.2112 104.282C14.9808 103.3 14.7504 102.317 14.5968 101.662C14.4432 101.007 14.2896 100.352 13.8085 99.7741L13.4042 99.5234L13.5782 98.7916L26.6696 107.469C26.4392 106.487 27.1914 105.274 28.7522 104.562C30.3129 103.851 32.0273 103.794 32.662 105.027C33.2967 106.261 32.6213 107.801 30.733 108.589C29.1723 109.301 27.7854 109.28 26.9 108.452L19.5456 103.611C19.3717 104.343 19.6021 105.326 19.4282 106.058C19.4079 107.444 19.3107 108.504 20.2729 109.66C21.2352 110.816 22.6988 111.164 24.0856 111.185L24.4132 111.108C24.4899 111.435 23.7581 111.261 23.7581 111.261C23.0263 111.087 22.2945 110.914 21.5627 110.74C20.5033 110.643 19.6179 109.814 19.4643 109.159ZM18.9064 108.253C18.2717 107.02 18.2921 105.633 18.0617 104.65C17.8313 103.668 17.6009 102.685 16.6387 101.529L15.8301 101.028C15.8098 102.414 15.7126 103.474 16.0198 104.784C16.4038 106.421 17.0385 107.654 18.9064 108.253Z" fill="black" fill-opacity="0.37"/>
<path d="M161.996 43.6041C162.073 43.9316 161.745 44.0084 162.15 44.2591C162.15 44.2591 162.226 44.5866 162.631 44.8373C163.265 46.0705 163.977 47.6312 163.957 49.018C163.936 50.4048 163.588 51.8684 163.24 53.332C162.816 54.4681 162.064 55.681 161.312 56.8939C160.81 57.7025 160.385 58.8386 160.616 59.8211L160.846 60.8036L160.191 60.9572L152.272 38.9741C151.52 40.187 149.304 41.052 147.186 40.8578C144.663 40.4129 142.487 38.5044 142.759 36.7133C143.03 34.9222 145.496 33.6528 148.019 34.0977C150.542 34.5426 152.236 35.8729 152.293 37.5872L156.598 50.0526C157.427 49.1672 158.256 48.2818 158.757 47.4732C159.837 46.1835 161.167 44.4895 161.034 42.4477C160.824 40.0784 159.38 38.3438 158.418 37.1874C158.341 36.8599 158.014 36.9367 158.341 36.8599C158.592 36.4556 159.073 37.0338 159.15 37.3613C160.035 38.1902 160.593 39.0959 161.151 40.0016C162.037 40.8305 162.093 42.5448 161.996 43.6041ZM161.976 44.9909C161.648 45.0677 161.648 45.0677 161.976 44.9909C161.377 46.8588 160.374 48.476 159.699 50.0164C158.947 51.2293 158.676 53.0204 158.732 54.7347L158.962 55.7172C160.042 54.4275 161.373 52.7335 162.048 51.1931C162.723 49.6527 163.245 47.4573 161.976 44.9909Z" fill="black" fill-opacity="0.37"/>
<path d="M-0.644714 133.914L8.92092 143.763L8.59341 143.84L-0.56792 134.241C-0.741843 134.973 -1.32007 135.454 -1.9751 135.608C-2.95764 135.838 -4.017 135.741 -4.17059 135.086C-4.32418 134.431 -3.82275 133.622 -2.84021 133.392C-1.78087 133.489 -1.04902 133.663 -0.644714 133.914Z" fill="black" fill-opacity="0.37"/>
<path d="M9.5127 125.658L19.0783 135.508L18.7508 135.585L9.5895 125.986C9.41558 126.717 8.83734 127.198 8.18232 127.352C7.19978 127.582 6.14042 127.485 5.98683 126.83C5.83324 126.175 6.33468 125.367 7.31722 125.136C8.29976 124.906 9.35911 125.003 9.5127 125.658Z" fill="black" fill-opacity="0.37"/>
<path d="M6.51978 134.998L12.3902 140.877L12.0626 140.953L6.59657 135.325C6.42265 136.057 5.84442 136.538 5.18939 136.692C4.20685 136.922 3.14749 136.825 2.9939 136.17C2.84031 135.515 3.34175 134.706 4.32429 134.476C5.30683 134.245 6.36619 134.343 6.51978 134.998Z" fill="black" fill-opacity="0.37"/>
<path d="M11.5298 132.786L16.1104 137.586L15.7829 137.663L11.6066 133.114C11.4327 133.846 10.8544 134.327 10.1994 134.48C9.21685 134.711 8.15752 134.614 8.00393 133.959C7.85034 133.304 8.35178 132.495 9.33432 132.265C10.3169 132.034 11.0487 132.208 11.5298 132.786Z" fill="black" fill-opacity="0.37"/>
<path d="M18.5972 134.93L8.11224 143.262L8.67016 144.168L19.1551 135.835L18.5972 134.93Z" fill="black" fill-opacity="0.37"/>
<path d="M10.5425 138.891L6.74561 141.855L7.3035 142.761L11.1004 139.797L10.5425 138.891Z" fill="black" fill-opacity="0.37"/>
<path d="M0.107361 132.701L-4.67208 135.894L-4.26778 136.145L0.184157 133.028L0.107361 132.701Z" fill="black" fill-opacity="0.37"/>
<path d="M87.3091 128.837L93.0123 151.685L92.3573 151.839L86.9612 130.301C86.2091 131.514 84.244 131.974 82.0485 131.453C79.5256 131.008 78.0055 128.946 78.3533 127.482C78.6243 125.691 80.8401 124.826 83.4399 125.598C85.9629 126.043 87.3294 127.45 87.3091 128.837Z" fill="black" fill-opacity="0.37"/>
<path d="M90.1394 130.592L76.9056 131.622L77.136 132.605L90.0423 131.651L90.1394 130.592Z" fill="black" fill-opacity="0.37"/>
<path d="M91.061 134.522L78.1547 135.475L77.9808 136.207L91.2914 135.505L91.061 134.522Z" fill="black" fill-opacity="0.37"/>
<path d="M151.181 130.099L167.514 106.92L168.246 107.094L152.665 129.06C154.379 129.003 156.401 130.257 157.593 132.396C158.94 135.19 158.571 138.04 156.76 139.156C154.949 140.272 152.195 138.844 150.849 136.05C149.656 133.911 149.697 131.138 151.181 130.099Z" fill="black" fill-opacity="0.37"/>
<path d="M162.425 136.791L151.416 125.207L150.587 126.092L161.923 137.599L162.425 136.791Z" fill="black" fill-opacity="0.37"/>
<path d="M165.259 132.671L154.327 121.414L153.422 121.972L164.43 133.557L165.259 132.671Z" fill="black" fill-opacity="0.37"/>
<path d="M121.612 132.195L122.961 107.002L123.693 107.176L122.364 130.982C123.521 130.02 125.967 130.137 127.912 131.064C130.338 132.568 131.607 135.034 130.604 136.651C129.601 138.269 126.904 138.555 124.479 137.051C122.534 136.125 121.341 133.986 121.612 132.195Z" fill="black" fill-opacity="0.37"/>
<path d="M103.664 126.384L107.561 94.3746L108.293 94.5485L104.744 125.094C105.901 124.132 108.347 124.25 110.041 125.58C112.467 127.084 113.409 129.627 112.406 131.244C111.403 132.862 108.629 132.821 106.203 131.317C104.182 130.063 102.989 127.924 103.664 126.384Z" fill="black" fill-opacity="0.37"/>
<path d="M86.3609 110.057L88.8613 89.7762L89.5931 89.9501L87.113 108.844C88.2695 107.881 90.7157 107.999 92.4097 109.329C94.8356 110.833 95.7774 113.377 94.7746 114.994C93.7717 116.611 90.998 116.57 88.5721 115.066C86.8781 113.736 85.6855 111.597 86.3609 110.057Z" fill="black" fill-opacity="0.37"/>
<path d="M108.078 98.0538L108.467 93.8166L88.8047 88.0619L88.3394 91.9716L108.078 98.0538Z" fill="black" fill-opacity="0.37"/>
<path d="M122.007 144.195L120.869 171.757L120.137 171.584L121.178 145.081C120.022 146.043 118.231 145.772 116.614 144.769C114.592 143.516 113.476 141.704 114.479 140.087C115.155 138.547 117.524 138.336 119.545 139.59C121.239 140.92 122.355 142.732 122.007 144.195Z" fill="black" fill-opacity="0.37"/>
<path d="M137.832 155.687L137.087 173.137L136.355 172.963L137.003 156.572C135.847 157.535 134.056 157.264 132.438 156.261C130.417 155.007 129.301 153.196 130.304 151.579C130.979 150.038 133.349 149.828 135.37 151.082C137.064 152.412 138.18 154.223 137.832 155.687Z" fill="black" fill-opacity="0.37"/>
<path d="M120.178 168.81L119.963 172.315L137.046 175.911L137.261 172.405L120.178 168.81Z" fill="black" fill-opacity="0.37"/>
<path d="M120.587 163.186L120.449 167.019L137.532 170.614L137.419 167.186L120.587 163.186Z" fill="black" fill-opacity="0.37"/>
<path d="M38.5282 116.781L49.0266 140.924L48.3716 141.077L38.5079 118.168C37.8325 119.708 35.9442 120.497 33.8255 120.302C31.0518 120.262 28.9535 118.681 29.1477 116.562C29.4188 114.771 31.481 113.251 34.3315 113.619C36.1227 113.89 38.1442 115.144 38.5282 116.781Z" fill="black" fill-opacity="0.37"/>
<path d="M33.314 118.581C31.2762 118.427 29.6696 117.702 29.7256 116.961C29.7816 116.22 31.479 115.744 33.5168 115.898C35.5546 116.052 37.1611 116.777 37.1051 117.518C37.0491 118.259 35.3518 118.735 33.314 118.581Z" fill="white"/>
<path d="M140.08 63.6001L127.508 80.714L127.104 80.4633L138.847 64.2348C137.46 64.2145 136.247 63.4624 135.131 61.651C133.938 59.5121 134.46 57.3167 135.693 56.682C136.927 56.0473 138.871 56.9733 140.064 59.1122C141.18 60.9236 140.909 62.7147 140.08 63.6001Z" fill="black" fill-opacity="0.37"/>
<path d="M155.482 98.3401L147.152 109.968L146.747 109.717L154.576 98.898C153.189 98.8777 151.976 98.1256 150.861 96.3141C149.745 94.5027 150.19 91.9798 151.423 91.3451C152.656 90.7104 154.601 91.6365 155.794 93.7754C156.505 95.3361 156.638 97.3779 155.482 98.3401Z" fill="black" fill-opacity="0.37"/>
<path d="M169.856 91.8597L152.367 116L151.963 115.75L168.623 92.4944C167.236 92.4741 166.023 91.722 164.907 89.9106C163.715 87.7717 164.237 85.5763 165.47 84.9416C166.703 84.3069 168.648 85.2329 169.84 87.3718C170.956 89.1832 170.762 91.3018 169.856 91.8597Z" fill="black" fill-opacity="0.37"/>
<path d="M148.182 73.1021L130.692 97.2426L130.288 96.9919L146.948 73.7368C145.562 73.7165 144.349 72.9644 143.233 71.153C142.04 69.014 142.562 66.8186 143.795 66.1839C145.029 65.5493 146.973 66.4753 148.166 68.6142C149.282 70.4256 149.087 72.5442 148.182 73.1021Z" fill="black" fill-opacity="0.37"/>
<path d="M149.094 88.7815L138.682 103.316L138.277 103.065L148.265 89.6669C146.879 89.6466 145.666 88.8945 144.55 87.0831C143.357 84.9441 143.879 82.7487 145.112 82.1141C146.346 81.4794 148.29 82.4054 149.483 84.5443C150.194 86.105 150.251 87.8193 149.094 88.7815Z" fill="black" fill-opacity="0.37"/>
<path d="M153.293 114.056L131.619 95.2979L130.288 96.9919L151.963 115.75L153.293 114.056Z" fill="black" fill-opacity="0.37"/>
<path d="M142.171 99.0427L133.875 91.6593L132.544 93.3533L140.764 100.409L142.171 99.0427Z" fill="black" fill-opacity="0.37"/>
<path d="M150.858 74.2021L142.987 65.6826L142.081 66.2405L150.357 75.0107L150.858 74.2021Z" fill="black" fill-opacity="0.37"/>
<path d="M140.444 66.6245L132.168 57.8543L131.59 58.3354L139.865 67.1056L140.444 66.6245Z" fill="black" fill-opacity="0.37"/>
<path d="M138.361 69.5314L130.085 60.7612L129.507 61.2423L137.455 70.0893L138.361 69.5314Z" fill="black" fill-opacity="0.37"/>
<path d="M187.237 58.4159L187.515 22.7633L188.574 22.8604L188.567 56.7219C190.051 55.6829 192.421 55.4728 194.442 56.7263C197.196 58.1537 198.465 60.6201 197.539 62.5648C196.613 64.5095 193.588 64.8732 190.835 63.4458C188.159 62.3459 186.966 60.207 187.237 58.4159Z" fill="black" fill-opacity="0.37"/>
<path d="M166.177 42.2783L166.425 19.762L167.484 19.8591L167.256 40.9886C168.74 39.9496 171.11 39.7395 173.131 40.993C175.884 42.4204 177.154 44.8869 176.228 46.8316C175.302 48.7763 172.277 49.1399 169.524 47.7125C167.098 46.2083 165.905 44.0694 166.177 42.2783Z" fill="black" fill-opacity="0.37"/>
<path d="M188.437 26.6933L188.344 21.8779L166.042 18.1244L166.385 22.5355L188.437 26.6933Z" fill="black" fill-opacity="0.37"/>
<path d="M54.7458 93.5876L60.441 93.0715L60.7142 96.0866L55.019 96.6027L54.7458 93.5876Z" fill="black" fill-opacity="0.37"/>
<path d="M71.8373 110.007L69.7165 87.7008L70.3715 87.5472L72.262 108.871C73.0909 107.986 74.8053 107.929 76.6733 108.528C78.618 109.454 79.7338 111.265 79.3092 112.401C78.6338 113.941 76.6687 114.402 74.724 113.476C72.7792 112.55 71.7402 111.066 71.8373 110.007Z" fill="black" fill-opacity="0.37"/>
<path d="M45.1957 112.799L43.2488 89.7611L43.9038 89.6075L45.9479 111.586C46.7768 110.701 48.4912 110.644 50.3591 111.243C52.3039 112.169 53.4197 113.98 52.995 115.116C52.3197 116.657 50.3546 117.118 48.4099 116.192C46.1376 115.342 45.0986 113.858 45.1957 112.799Z" fill="black" fill-opacity="0.37"/>
<path d="M55.3534 104.544L53.7859 89.0178L54.4409 88.8642L55.778 103.408C56.607 102.522 58.3213 102.466 60.1893 103.064C62.134 103.99 63.2498 105.802 62.8252 106.938C62.1498 108.478 60.1848 108.939 58.24 108.013C56.3721 107.414 55.0055 106.007 55.3534 104.544Z" fill="black" fill-opacity="0.37"/>
<path d="M43.2307 89.5665L70.3679 87.0988L70.642 90.1139L43.5048 92.5816L43.2307 89.5665Z" fill="black" fill-opacity="0.37"/>
<path d="M219.783 92.5907C209.373 79.1385 192.407 73.0968 177.29 69.0406C168.104 66.703 158.994 64.6929 149.46 63.819C140.254 62.8682 130.218 62.8029 121.683 66.1864C117.579 67.8398 114.186 71.0539 113.219 75.7722C112.426 79.7587 114.157 84.1901 115.984 87.5623C119.869 95.289 125.893 101.823 131.917 108.357C137.613 114.968 143.637 121.502 147.599 129.557C150.061 134.162 151.848 140.308 151.362 145.604C150.431 153.424 142.668 154.207 136.389 153.952C126.527 153.155 117.034 149.508 107.868 145.783C100.166 142.407 92.4638 139.03 84.9355 134.922C70.3601 127.283 55.7078 119.317 39.8381 116.474C30.0737 114.617 19.8643 115.284 10.9244 118.417C6.82028 120.07 3.1973 122.302 0.209027 125.767C-2.20102 128.75 -4.12999 132.312 -5.73141 135.797C-9.6661 142.593 -14.7166 147.578 -21.6147 150.578C-28.8403 153.654 -37.0846 153.86 -44.6535 152.525C-71.8484 148.537 -96.0053 126.561 -106.212 99.2404C-106.289 98.9129 -105.962 98.8361 -105.885 99.1636C-99.3685 116.639 -87.2641 131.421 -72.2279 141.025C-58.3278 150.204 -40.1294 155.61 -24.6391 150.942C-16.5281 148.694 -10.5718 143.151 -6.13572 135.546C-4.45748 132.389 -2.77925 129.231 -0.773508 125.997C1.55975 122.686 4.12337 120.357 7.57243 118.857C23.6816 110.934 43.6147 114.897 60.0784 121.748C70.7847 126.147 81.1432 132.01 91.7523 137.469C100.744 141.926 109.987 145.977 119.731 149.221C124.603 150.842 129.398 152.136 134.367 152.699C138.277 153.164 142.11 153.302 145.636 152.129C155.809 148.362 149.754 132.852 145.695 125.857C141.078 117.956 134.65 111.172 128.549 104.31C123.334 98.2771 117.714 91.9937 114.638 84.7683C113.215 81.6469 112.37 78.0444 113.316 74.7129C113.858 71.1307 116.345 68.4745 119.39 66.724C122.686 64.5693 126.616 63.6477 130.295 63.1304C134.957 62.3827 139.773 62.29 144.338 62.6017C158.61 63.0554 173.247 66.5335 187.131 71.2245C199.224 75.6445 211.701 81.702 219.783 92.5907C220.11 92.5139 219.86 92.9182 219.783 92.5907Z" fill="black" fill-opacity="0.37"/>
<path d="M228.133 79.5764C217.145 66.6052 200.006 61.2954 184.31 57.7202C174.873 55.787 165.513 54.1812 156.056 53.6348C146.599 53.0883 136.312 53.4273 127.853 57.1383C123.826 59.1192 120.106 62.4101 119.467 67.0516C118.674 71.0381 120.732 75.3927 122.559 78.7648C126.772 86.4148 133.123 92.8721 139.398 99.002C145.345 105.209 151.696 111.666 155.986 119.643C158.448 124.249 160.562 130.318 160.076 135.614C159.473 143.357 151.536 144.872 145.257 144.617C135.472 144.148 125.4 140.981 115.984 137.661C108.031 134.689 100.001 131.389 92.2989 128.013C77.222 121.183 62.3191 113.621 45.948 111.586C35.9328 110.134 25.8002 111.128 16.6095 114.665C12.5055 116.319 8.63175 118.954 6.04778 122.67C3.71452 125.981 2.11309 129.466 0.184138 133.028C-3.34625 140.075 -8.64745 145.464 -15.5456 148.464C-22.7712 151.54 -31.2662 152.15 -39.0091 151.547C-66.6286 148.695 -91.9419 127.681 -103.055 100.919C-103.132 100.591 -102.804 100.514 -102.727 100.842C-95.6326 117.836 -82.95 132.137 -67.2587 141.587C-52.7804 150.285 -34.4849 154.632 -18.4164 149.483C-10.0546 146.831 -4.17519 140.96 -0.0665777 133.432C1.61165 130.275 3.21308 126.79 5.21882 123.555C7.55208 120.244 10.1157 117.915 13.8155 116.011C30.0218 107.028 50.2056 110.588 67.4983 116.553C78.4553 120.548 89.0645 126.007 99.8475 130.734C109.09 134.786 118.584 138.434 128.578 141.272C133.374 142.567 138.496 143.784 143.466 144.346C147.375 144.811 151.459 144.545 154.908 143.045C165.332 138.873 158.622 123.517 154.235 116.599C149.291 108.775 142.612 102.394 136.184 95.6095C130.717 89.9811 124.77 83.7744 121.694 76.5491C120.271 73.4277 119.503 70.1527 120.045 66.5705C120.587 62.9883 122.997 60.0046 126.042 58.2541C129.337 56.0993 133.268 55.1777 137.198 54.2562C141.86 53.5085 146.599 53.0883 151.414 52.9956C165.938 53.0451 181.076 55.7146 195.134 59.6738C206.669 63.1881 219.724 68.7644 228.133 79.5764C228.461 79.4996 228.461 79.4996 228.133 79.5764Z" fill="black" fill-opacity="0.37"/>
<path d="M236.33 65.9071C224.763 53.417 207.046 48.5883 191.176 45.7449C181.489 44.2159 171.878 43.0145 162.17 42.8723C152.789 42.6534 142.252 43.3966 133.62 47.8395C129.592 49.8204 125.949 53.4388 125.387 58.4078C124.998 62.645 126.651 66.7489 128.806 70.0442C133.346 77.6173 139.949 83.6704 146.146 89.4727C152.421 95.6026 159.023 101.656 163.64 109.556C166.43 114.085 168.794 119.749 168.386 125.373C167.783 133.116 159.922 134.959 153.392 135.108C143.357 135.043 133.034 132.281 123.367 129.365C115.164 126.797 106.883 123.902 98.8534 120.602C83.5258 114.176 67.7939 107.5 51.1721 105.87C40.983 105.149 30.5229 106.22 21.4858 110.412C17.131 112.47 13.5848 115.029 10.6733 118.821C8.34007 122.132 6.81543 125.945 4.88648 129.507C1.3561 136.554 -3.54078 142.194 -10.6896 145.598C-18.166 149.078 -26.2567 149.939 -34.3271 149.413C-62.3712 147.697 -88.841 127.645 -100.86 101.44C-100.936 101.113 -100.609 101.036 -100.532 101.364C-92.7824 118.204 -79.5216 132.024 -63.3289 140.666C-48.3491 148.555 -29.4753 152.421 -13.5604 146.616C-5.2755 143.637 0.60395 137.767 4.63577 129.911C6.2372 126.426 7.83865 122.941 9.92119 120.034C12.2544 116.723 14.7413 114.067 18.3643 111.835C34.7445 102.12 55.3529 104.544 72.8963 110.104C84.4316 113.618 95.2914 118.673 106.325 122.996C115.819 126.644 125.89 129.81 135.808 132.321C140.931 133.539 145.977 134.429 150.869 134.663C154.702 134.801 158.863 134.862 162.563 132.958C172.833 128.131 165.872 113.179 161.235 106.665C155.963 98.9182 148.956 92.6145 142.354 86.5614C136.56 81.0098 130.69 75.1306 126.959 68.0589C125.536 64.9375 124.44 61.7393 124.982 58.1571C125.524 54.5749 127.934 51.5912 130.575 49.59C133.794 47.1077 138.051 46.1093 141.654 45.2645C146.239 44.1893 151.305 43.6924 156.121 43.5997C170.818 42.9174 186.207 45.1826 200.843 48.6606C214.037 50.4041 227.343 55.5762 236.33 65.9071C236.581 65.5028 236.33 65.9071 236.33 65.9071Z" fill="black" fill-opacity="0.37"/>
<path d="M244.046 51.6594C231.901 39.6504 213.682 35.6303 197.639 33.5187C188.028 32.3173 178.166 31.5201 168.208 31.7823C158.577 31.9676 147.789 33.1151 139.233 37.8855C135.282 40.1939 131.639 43.8123 131.077 48.7813C130.688 53.0185 132.669 57.0456 134.824 60.3409C139.691 67.8373 146.544 73.486 153.07 79.2116C159.595 84.9371 166.525 90.9134 171.392 98.4097C174.182 102.938 176.874 108.526 176.465 114.15C176.19 121.816 168.079 124.063 161.626 124.54C151.416 125.206 140.843 122.849 130.848 120.01C122.394 117.846 114.19 115.278 105.91 112.383C90.0809 106.766 74.0983 100.494 56.975 99.6717C46.8627 99.2788 36.1519 100.754 26.8641 105.35C22.5093 107.408 19.0399 110.295 16.2052 114.414C13.872 117.726 12.3473 121.538 10.8227 125.351C7.3691 132.725 2.4722 138.365 -4.59982 142.097C-11.9994 145.905 -20.3408 147.17 -28.6619 147.048C-57.4582 146.545 -84.7569 127.378 -97.6812 101.732C-97.758 101.404 -97.4305 101.327 -97.3537 101.655C-88.9491 118.341 -75.1868 131.353 -58.4159 139.513C-42.8579 146.922 -23.8102 150.056 -7.72137 143.52C0.486806 140.213 6.61695 133.938 10.572 125.755C12.1734 122.27 13.7748 118.785 15.4531 115.627C17.382 112.065 20.1964 109.332 23.8193 107.101C40.046 96.7312 61.1559 98.3458 79.2007 103.098C90.9867 106.208 102.097 110.858 113.709 114.7C123.453 117.943 133.776 120.705 143.944 122.812C148.99 123.702 154.364 124.515 159.507 124.346C163.667 124.407 167.751 124.14 171.451 122.236C181.972 117.005 174.028 102.283 169.391 95.7694C163.869 88.4266 156.611 82.5272 149.605 76.2234C143.561 71.0761 137.363 65.2738 133.631 58.202C131.881 55.1574 130.785 51.9592 131.327 48.377C131.869 44.7948 134.203 41.4836 136.843 39.4824C140.062 37.0001 144.243 35.6742 148.096 34.4251C153.009 33.2732 157.998 32.4487 162.737 32.0285C177.608 30.6144 193.575 32.3985 208.058 35.2216C221.001 37.3694 234.808 41.7328 244.046 51.6594C244.374 51.5826 244.45 51.9101 244.046 51.6594Z" fill="black" fill-opacity="0.37"/>
<path d="M251.762 37.4118C239.039 25.884 220.646 22.5957 204.024 20.9652C194.162 20.168 184.05 19.7751 173.841 20.4416C163.959 21.0312 153.325 22.8338 144.769 27.6041C140.491 29.9893 137.252 33.8584 137.017 38.7506C136.629 42.9878 138.937 46.9382 141.419 50.1567C146.537 57.2487 153.718 62.8207 160.494 68.1419C167.347 73.7907 174.527 79.3626 179.722 86.7822C182.839 91.2339 185.532 96.8217 185.45 102.369C185.252 110.362 177.141 112.61 170.764 113.414C160.304 114.485 149.808 112.454 139.639 110.347C130.934 108.588 122.403 106.097 113.872 103.605C97.4646 98.4695 81.3081 92.9293 64.0108 92.8392C53.6479 92.8507 42.7631 95.0575 33.5521 99.9815C29.2741 102.367 25.8047 105.253 22.97 109.373C20.7136 113.012 19.1889 116.824 17.6643 120.637C14.5382 127.935 9.79491 134.23 2.47214 138.365C-4.8506 142.501 -13.4428 144.17 -21.687 144.376C-50.908 145.009 -79.2864 127.132 -93.1165 102.043C-93.1933 101.716 -92.8657 101.639 -92.789 101.966C-83.8061 118.172 -69.3888 131.03 -52.1932 138.054C-36.1338 144.654 -16.5846 146.98 -0.321905 139.711C8.13699 136 13.8628 129.475 17.8179 121.292C19.4193 117.807 20.6164 114.071 22.6222 110.837C24.5511 107.275 27.3655 104.542 30.9116 101.983C47.3122 90.8813 68.596 91.7641 87.1423 95.7074C99.179 98.413 110.54 102.659 122.326 105.769C132.321 108.608 142.894 110.966 153.313 112.669C158.687 113.482 163.984 113.967 169.127 113.798C173.21 113.531 177.622 113.188 180.917 111.033C191.361 105.474 183.09 90.8296 178.202 84.7201C172.352 77.4541 164.844 71.9589 157.587 66.0595C151.215 60.989 144.767 55.5909 140.708 48.596C138.957 45.5514 137.862 42.3531 138.076 38.8477C138.214 35.0148 140.624 32.0311 143.515 29.6256C146.657 26.8159 150.838 25.49 154.691 24.2409C159.527 22.7614 164.517 21.9369 169.506 21.1125C183.492 18.8694 199.556 19.5942 214.617 21.9362C227.887 24.0072 241.869 27.6389 251.762 37.4118C252.089 37.335 252.089 37.335 251.762 37.4118Z" fill="black" fill-opacity="0.37"/>
</g>
<defs>
<clipPath id="clip0">
<rect width="366" height="147" fill="white" transform="matrix(-0.973592 0.228297 0.228297 0.973592 243.334 0)"/>
</clipPath>
</defs>
</svg>
