<svg width="30" height="28" viewBox="0 0 30 28" fill="none" xmlns="http://www.w3.org/2000/svg">
<path d="M16.5 0C10.089 0 4.69762 4.66356 3.32812 10.8889H6.42188C7.71637 6.39644 11.7525 3.11111 16.5 3.11111C22.29 3.11111 27 7.99556 27 14C27 20.0044 22.29 24.8889 16.5 24.8889C11.7525 24.8889 7.71637 21.6036 6.42188 17.1111H3.32812C4.69762 23.3364 10.089 28 16.5 28C23.943 28 30 21.7187 30 14C30 6.28133 23.943 0 16.5 0ZM12 7.77778V12.4444H0V15.5556H12V20.2222L19.5 14L12 7.77778Z" fill="#D70672"/>
</svg>
