<svg width="366" height="147" viewBox="0 0 366 147" fill="none" xmlns="http://www.w3.org/2000/svg">
<path d="M68.6249 81.7414C67.2793 77.3684 62.5697 74.6773 59.2058 71.6499C57.8602 70.6407 57.8602 70.6407 58.533 68.9588C58.8694 67.9497 59.2058 66.9405 59.2058 65.9314C59.5422 63.913 59.5422 61.8947 58.8694 60.2128C56.1782 52.1396 45.7499 49.4485 39.6947 55.8398C38.3492 54.8307 37.0036 53.4851 35.658 52.476C34.9852 52.1396 33.3032 51.1304 33.3032 50.1213C33.6396 47.7666 33.6396 45.0755 33.3032 42.7208C32.294 37.0023 29.6028 31.6201 24.8933 27.9199C22.5385 26.238 19.8473 24.5561 17.1561 23.5469C14.465 22.8741 14.1286 25.2288 14.1286 27.5835C14.1286 33.3021 17.8289 39.0206 21.8657 43.0572C23.2113 44.4027 27.2481 46.4211 26.9117 48.4394C26.5753 51.1304 26.2389 54.1579 26.2389 56.849C25.9025 61.8947 26.5753 67.6133 29.6028 71.6499C36.3308 80.7323 50.1231 81.405 56.851 71.9863C60.5514 74.6773 66.6065 78.0412 67.2793 83.087C67.6157 85.1053 66.6065 87.1236 65.2609 88.8055C64.2517 90.151 61.5606 92.1693 59.8786 90.8238C63.5789 88.4691 62.2334 82.7506 57.8602 82.4142C53.487 82.0778 51.4686 87.1236 53.8234 90.4874C58.1966 98.2243 70.9797 89.4783 68.6249 81.7414ZM27.2481 45.0755V45.4119C24.2205 43.0572 21.5293 40.0297 20.1837 36.3295C19.5109 34.3112 18.1653 28.5927 21.5293 28.2563C24.2205 27.9199 26.2389 32.2929 26.9117 34.3112C27.9209 37.6751 27.9209 41.3753 27.2481 45.0755ZM55.169 71.6499C52.4778 75.0137 47.7683 77.3684 43.3951 77.032C33.3032 76.3593 31.2848 65.595 32.294 57.5217C32.6304 55.8398 32.9668 54.1579 33.3032 52.476C34.6488 53.4851 35.658 54.4943 37.0036 55.5034C38.0128 56.1762 39.3584 56.849 38.6856 57.8581C37.6764 59.8764 37.34 61.8947 37.6764 64.2494C38.0128 68.6224 41.3767 71.6499 45.7499 72.3227C46.4227 72.3227 51.4686 72.3227 50.4595 70.9771C50.1231 70.3044 46.7591 70.9771 45.7499 70.9771C41.7131 69.6316 41.0403 64.2494 43.3951 60.8856C45.7499 62.5675 47.7683 64.5858 50.1231 66.2677C51.4686 67.2769 52.4778 68.286 53.8234 69.2952C54.1598 69.968 55.8418 70.6407 55.169 71.6499ZM56.5146 69.6316C52.4778 66.2677 48.1047 62.9039 44.0679 59.5401C43.7315 59.2037 48.1047 57.5217 48.4411 57.5217C50.4594 57.5217 52.1414 57.8581 53.8234 58.8673C57.1874 61.5584 58.1966 65.9314 56.5146 69.6316Z" fill="black" fill-opacity="0.37"/>
<path fill-rule="evenodd" clip-rule="evenodd" d="M310.831 71.6498C311.167 71.6498 311.167 71.6498 311.504 71.6498C311.504 72.659 311.84 74.0045 311.84 75.0137C312.177 75.0137 312.513 74.6773 312.849 74.6773C312.849 75.3501 312.849 76.0228 313.186 76.3592C312.849 76.3592 312.513 76.6956 312.177 76.6956C312.177 77.3684 312.513 78.3775 312.513 79.0503C312.849 79.0503 313.186 78.7139 313.522 78.7139C313.522 79.3867 313.522 80.0595 313.859 80.3958C313.522 80.3958 313.186 80.7322 312.849 80.7322C312.849 81.7414 313.186 83.0869 313.186 84.0961C312.849 84.0961 312.513 84.0961 312.513 84.0961C312.513 83.0869 312.177 82.0778 312.177 81.0686C311.504 81.0686 311.167 81.405 310.495 81.7414C310.495 82.7505 310.831 84.0961 310.831 85.1052C310.495 85.1052 310.158 85.1052 310.158 85.1052C310.158 84.0961 309.822 82.7505 309.822 81.7414C309.485 81.7414 309.149 82.0778 308.813 82.0778C308.813 81.405 308.813 80.7322 308.476 80.3958C308.813 80.3958 309.149 80.0595 309.485 80.0595C309.485 79.0503 309.149 78.3775 309.149 77.3684C308.813 77.3684 308.476 77.7048 308.14 77.7048C308.14 77.032 308.14 76.3592 307.803 76.0228C308.14 76.0228 308.476 75.6865 308.813 75.6865C308.813 74.6773 308.476 73.3318 308.476 72.3226C308.813 72.3226 309.149 72.3226 309.149 72.3226C309.149 73.3318 309.485 74.6773 309.485 75.6865C310.158 75.6865 310.495 75.3501 311.167 75.0137C310.831 73.6681 310.831 72.659 310.831 71.6498ZM309.822 77.3684C309.822 78.0411 310.158 79.0503 310.158 79.7231C310.831 79.7231 311.167 79.3867 311.84 79.3867C311.84 78.7139 311.504 78.0411 311.504 77.032V76.6956C310.831 77.032 310.158 77.032 309.822 77.3684Z" fill="black" fill-opacity="0.37"/>
<path d="M242.879 55.1671V54.8307C242.879 54.8307 243.215 54.8307 243.215 54.4943C244.224 53.8215 244.897 53.1487 245.233 52.1396C245.57 51.1304 245.906 50.1213 245.906 49.4485C245.906 48.4394 245.906 47.4302 245.906 46.7574C245.906 46.0847 245.906 45.4119 246.243 44.7391L246.579 44.4027L246.243 43.73L235.478 55.1671C235.478 54.1579 234.469 53.1487 232.787 52.8124C231.105 52.476 229.423 52.8124 229.086 54.1579C228.75 55.5034 229.759 56.849 231.778 57.1854C233.46 57.5217 234.805 57.1854 235.478 56.1762L241.533 49.7849C241.869 50.4577 241.869 51.4668 242.206 52.1396C242.542 53.4851 242.879 54.4943 242.206 55.8398C241.533 57.1854 240.187 57.8581 238.842 58.1945H238.506C238.506 58.5309 239.178 58.1945 239.178 58.1945C239.851 57.8581 240.524 57.5217 241.197 57.1854C242.206 56.849 242.879 55.8398 242.879 55.1671ZM243.215 54.1579C243.551 52.8124 243.215 51.4668 243.215 50.4577C243.215 49.4485 243.215 48.4394 243.888 47.0938L244.561 46.4211C244.897 47.7666 245.233 48.7757 245.233 50.1213C245.233 51.8032 244.897 53.1487 243.215 54.1579Z" fill="black" fill-opacity="0.37"/>
<path d="M89.1452 23.8833C89.1452 24.2196 89.4816 24.2196 89.1452 24.556C89.1452 24.556 89.1452 24.8924 88.8088 25.2288C88.4724 26.5743 88.136 28.2563 88.4724 29.6018C88.8088 30.9473 89.4816 32.2929 90.1544 33.6384C90.8272 34.6476 91.8364 35.6567 92.8456 36.6659C93.5183 37.3386 94.1911 38.3478 94.1911 39.3569V40.3661H94.8639L97.5551 17.1556C98.5643 18.1647 100.919 18.5011 102.937 17.8283C105.292 16.8192 106.974 14.4645 106.301 12.7826C105.629 11.1007 102.937 10.4279 100.583 11.437C98.2279 12.4462 96.8823 14.1281 97.2187 15.81L95.8731 28.929C94.8639 28.2563 93.8547 27.5835 93.1819 26.9107C91.8364 25.9016 90.1544 24.556 89.818 22.5377C89.4816 20.183 90.4908 18.1647 91.1636 16.8192C91.1636 16.4828 91.5 16.4828 91.1636 16.4828C90.8272 16.1464 90.4908 16.8192 90.4908 17.1556C89.818 18.1647 89.4816 19.1739 89.1452 20.183C88.4724 21.1922 88.8088 22.8741 89.1452 23.8833ZM89.4816 25.2288C89.818 25.2288 89.818 25.2288 89.4816 25.2288C90.4908 26.9107 91.8364 28.2563 92.8456 29.6018C93.8547 30.611 94.5275 32.2929 94.8639 33.9748V34.9839C93.5183 33.9748 91.8364 32.6293 90.8272 31.2837C89.818 29.9382 88.8088 27.9199 89.4816 25.2288Z" fill="black" fill-opacity="0.37"/>
<path d="M268.108 74.6774L261.044 86.4509H261.38L268.108 75.0138C268.445 75.6866 269.117 76.023 269.79 76.023C270.799 76.023 271.809 75.6866 271.809 75.0138C271.809 74.341 271.136 73.6683 270.127 73.6683C269.117 74.0047 268.445 74.341 268.108 74.6774Z" fill="black" fill-opacity="0.37"/>
<path d="M256.334 68.9589L249.27 80.7323H249.606L256.334 69.2952C256.671 69.968 257.343 70.3044 258.016 70.3044C259.025 70.3044 260.035 69.968 260.035 69.2952C260.035 68.6225 259.362 67.9497 258.353 67.9497C257.343 67.9497 256.334 68.2861 256.334 68.9589Z" fill="black" fill-opacity="0.37"/>
<path d="M261.38 77.3685L257.007 84.4325H257.344L261.38 77.7049C261.717 78.3776 262.389 78.714 263.062 78.714C264.071 78.714 265.081 78.3776 265.081 77.7049C265.081 77.0321 264.408 76.3593 263.399 76.3593C262.39 76.3593 261.38 76.6957 261.38 77.3685Z" fill="black" fill-opacity="0.37"/>
<path d="M255.998 76.3594L252.634 82.0779H252.97L255.998 76.6958C256.334 77.3685 257.007 77.7049 257.68 77.7049C258.689 77.7049 259.698 77.3685 259.698 76.6958C259.698 76.023 259.025 75.3502 258.016 75.3502C257.007 75.3502 256.334 75.6866 255.998 76.3594Z" fill="black" fill-opacity="0.37"/>
<path d="M249.606 80.0596L261.717 85.7781L261.38 86.7873L249.27 81.0687L249.606 80.0596Z" fill="black" fill-opacity="0.37"/>
<path d="M258.353 82.0779L262.726 84.0962L262.39 85.1053L258.016 83.087L258.353 82.0779Z" fill="black" fill-opacity="0.37"/>
<path d="M267.099 73.6683L272.481 75.6866L272.145 76.023L267.099 74.0047V73.6683Z" fill="black" fill-opacity="0.37"/>
<path d="M181.318 89.8146L180.982 113.362H181.655L181.991 91.1602C183 92.1693 185.019 92.1693 187.037 91.1602C189.392 90.151 190.401 87.7963 189.728 86.4508C189.055 84.7689 186.701 84.4325 184.346 85.778C181.991 86.7872 180.982 88.4691 181.318 89.8146Z" fill="black" fill-opacity="0.37"/>
<path d="M178.963 92.1693L192.083 90.151V91.1602L179.3 93.1785L178.963 92.1693Z" fill="black" fill-opacity="0.37"/>
<path d="M178.963 96.2059L191.746 94.1876L192.083 94.8604L178.963 97.2151V96.2059Z" fill="black" fill-opacity="0.37"/>
<path d="M119.421 105.625L98.228 86.7872L97.5552 87.1236L117.739 104.952C116.057 105.288 114.375 106.97 113.702 109.325C113.029 112.352 114.039 115.043 116.057 115.716C118.075 116.389 120.43 114.371 121.103 111.343C121.776 108.989 121.103 106.297 119.421 105.625Z" fill="black" fill-opacity="0.37"/>
<path d="M110.002 114.707L118.075 100.915L119.084 101.588L110.675 115.38L110.002 114.707Z" fill="black" fill-opacity="0.37"/>
<path d="M106.302 111.343L114.375 97.8878L115.384 98.2242L107.311 112.016L106.302 111.343Z" fill="black" fill-opacity="0.37"/>
<path d="M148.687 100.915L141.623 76.6956L140.95 77.032L147.678 99.9062C146.333 99.2334 143.978 99.9062 142.296 101.252C140.278 103.27 139.605 105.961 140.95 107.307C142.296 108.652 144.987 108.316 147.005 106.297C148.687 104.952 149.36 102.597 148.687 100.915Z" fill="black" fill-opacity="0.37"/>
<path d="M359.608 31.6201L349.18 21.1922L348.844 21.5286L358.599 31.6201C357.926 31.6201 357.254 32.2929 356.917 33.302C356.581 34.6476 356.917 35.6567 357.59 35.9931C358.263 36.3295 359.272 35.6567 359.608 34.3112C360.281 32.9657 360.281 31.9565 359.608 31.6201Z" fill="black" fill-opacity="0.37"/>
<path d="M360.954 23.5469L354.226 16.8192L353.89 17.1556L359.945 23.2105C359.272 23.2105 358.599 23.8833 358.263 24.8924C357.926 26.238 358.263 27.2471 358.936 27.5835C359.608 27.9199 360.618 27.2471 360.954 25.9016C361.627 24.8924 361.627 23.8833 360.954 23.5469Z" fill="black" fill-opacity="0.37"/>
<path d="M365.327 17.1556L357.926 9.75513L357.59 10.0915L364.318 17.1556C363.645 17.1556 362.972 17.8284 362.636 18.8375C362.299 20.183 362.636 21.1922 363.309 21.5286C363.981 21.865 364.99 21.1922 365.327 19.8467C366 18.5011 366 17.492 365.327 17.1556Z" fill="black" fill-opacity="0.37"/>
<path d="M349.853 22.5377L348.507 21.1922L357.926 9.75513L358.935 11.1007L349.853 22.5377Z" fill="black" fill-opacity="0.37"/>
<path d="M164.835 91.1602L153.734 60.8856L153.061 61.2219L163.489 90.151C162.143 89.4782 159.789 90.151 158.443 91.8329C156.425 93.8512 156.088 96.5423 157.434 97.8878C158.78 99.2334 161.471 98.5606 163.489 96.5423C165.171 94.8604 165.844 92.5057 164.835 91.1602Z" fill="black" fill-opacity="0.37"/>
<path d="M177.954 71.3135L170.889 52.1396L170.217 52.476L176.945 70.3043C175.599 69.6316 173.244 70.3043 171.899 71.9863C169.88 74.0046 169.544 76.6957 170.889 78.0412C172.235 79.3867 174.926 78.714 176.945 76.6957C178.29 75.0137 178.963 72.659 177.954 71.3135Z" fill="black" fill-opacity="0.37"/>
<path d="M154.07 64.5858L152.724 60.5492L170.553 50.4576L171.899 54.1579L154.07 64.5858Z" fill="black" fill-opacity="0.37"/>
<path d="M296.702 79.0503L291.993 64.2494H291.656L296.029 78.3775C295.357 78.0412 294.347 78.3775 293.675 79.0503C292.665 80.0595 292.329 81.405 293.002 82.0778C293.675 82.7505 295.02 82.4142 296.029 81.405C296.702 81.0686 297.039 79.7231 296.702 79.0503Z" fill="black" fill-opacity="0.37"/>
<path d="M303.43 69.6316L300.402 60.2128H300.066L302.757 68.9588C302.084 68.6224 301.075 68.9588 300.402 69.6316C299.393 70.6408 299.057 71.9863 299.73 72.6591C300.402 73.3318 301.748 72.9954 302.757 71.9863C303.43 71.6499 303.766 70.3044 303.43 69.6316Z" fill="black" fill-opacity="0.37"/>
<path d="M291.993 65.9313L291.656 63.913L300.403 59.54L300.739 61.5583L291.993 65.9313Z" fill="black" fill-opacity="0.37"/>
<path d="M151.042 112.689L158.443 139.263L159.116 138.927L152.052 113.362C153.397 114.034 155.079 113.362 156.425 112.016C158.107 110.334 158.779 108.316 157.434 106.97C156.425 105.625 154.07 105.961 152.388 107.643C151.042 109.325 150.37 111.343 151.042 112.689Z" fill="black" fill-opacity="0.37"/>
<path d="M138.259 127.49L142.969 144.309L143.641 143.973L139.268 128.162C140.614 128.835 142.296 128.162 143.641 126.817C145.323 125.135 145.996 123.117 144.651 121.771C143.641 120.426 141.287 120.762 139.605 122.444C138.259 124.126 137.586 126.144 138.259 127.49Z" fill="black" fill-opacity="0.37"/>
<path d="M158.443 136.236L159.452 139.6L143.641 147L142.632 143.636L158.443 136.236Z" fill="black" fill-opacity="0.37"/>
<path d="M156.761 130.854L157.77 134.554L141.96 141.954L141.287 138.59L156.761 130.854Z" fill="black" fill-opacity="0.37"/>
<path d="M349.18 43.73L362.972 53.8215L363.309 53.4851L349.853 44.0664C350.526 43.73 351.198 43.0572 351.198 42.0481C351.535 40.7025 350.862 39.6934 349.853 39.357C348.844 39.357 348.171 40.0298 347.834 41.3753C347.834 42.3845 348.171 43.3936 349.18 43.73Z" fill="black" fill-opacity="0.37"/>
<path d="M340.097 57.1854L353.89 67.2769L354.226 66.9405L340.77 57.5218C341.443 57.1854 342.116 56.5126 342.116 55.5035C342.452 54.1579 341.779 53.1488 340.77 52.8124C339.761 52.8124 339.088 53.4851 338.752 54.8307C339.088 55.8398 339.425 56.849 340.097 57.1854Z" fill="black" fill-opacity="0.37"/>
<path d="M350.862 51.8032L359.272 57.8581L359.609 57.5217L351.871 51.8032C352.544 51.4668 353.217 50.794 353.217 49.7849C353.553 48.4394 352.881 47.4302 351.871 47.0938C350.862 47.0938 350.189 47.7666 349.853 49.1121C349.853 50.4577 350.189 51.4668 350.862 51.8032Z" fill="black" fill-opacity="0.37"/>
<path d="M348.844 57.8581L355.572 62.5675L355.908 62.2311L349.853 57.8581C350.526 57.5217 351.198 56.849 351.198 55.8398C351.535 54.4943 350.862 53.4851 349.853 53.1487C348.844 53.1487 348.171 53.8215 347.834 55.167C347.498 56.5126 348.171 57.8581 348.844 57.8581Z" fill="black" fill-opacity="0.37"/>
<path d="M361.627 52.1396L362.973 53.4851L354.899 67.6133L353.217 66.6041L361.627 52.1396Z" fill="black" fill-opacity="0.37"/>
<path d="M359.272 50.4576L360.618 51.8032L352.544 65.9313L350.862 64.9222L359.272 50.4576Z" fill="black" fill-opacity="0.37"/>
<path d="M226.058 66.9405L221.349 92.8421H222.022L226.395 68.2861C227.404 69.6316 229.422 69.968 231.441 69.2952C234.132 68.6224 235.814 66.6041 235.141 64.5858C234.468 62.9039 232.114 61.8948 229.422 62.9039C227.74 63.5767 226.058 65.2586 226.058 66.9405Z" fill="black" fill-opacity="0.37"/>
<path d="M231.546 67.5025C233.495 66.8874 234.893 65.8143 234.67 65.1056C234.446 64.397 232.685 64.3212 230.736 64.9363C228.787 65.5514 227.388 66.6245 227.612 67.3332C227.836 68.0418 229.597 68.1176 231.546 67.5025Z" fill="white"/>
<path d="M329.669 72.659L325.632 57.8581H325.296L328.996 71.9862C328.324 71.6499 327.314 71.9862 326.642 72.659C325.632 73.6682 325.296 74.6773 325.969 75.3501C326.642 76.0229 327.987 75.6865 328.66 75.0137C329.669 74.3409 330.006 73.3318 329.669 72.659Z" fill="black" fill-opacity="0.37"/>
<path d="M336.733 63.5767L334.379 54.1579H334.042L336.397 62.9039C335.724 62.5675 334.715 62.9039 334.042 63.5767C333.033 64.5858 332.697 65.595 333.369 66.2677C334.042 66.9405 335.388 66.6041 336.06 65.9313C336.733 65.2586 337.07 64.2494 336.733 63.5767Z" fill="black" fill-opacity="0.37"/>
<path d="M325.632 59.54L325.296 57.5217L334.042 53.4851L334.379 55.5034L325.632 59.54Z" fill="black" fill-opacity="0.37"/>
<path d="M317.895 77.3684L321.595 91.4965H321.932L318.231 78.0411C318.904 78.3775 320.25 78.0411 320.923 77.3684C321.932 76.3592 322.268 75.0137 321.595 74.0045C320.923 73.3318 319.577 73.3318 318.231 74.3409C317.895 75.3501 317.222 76.6956 317.895 77.3684Z" fill="black" fill-opacity="0.37"/>
<path d="M320.476 76.5756C321.295 75.8194 321.755 74.9851 321.503 74.7121C321.25 74.4391 320.382 74.8308 319.563 75.587C318.744 76.3432 318.285 77.1775 318.537 77.4505C318.789 77.7235 319.657 77.3318 320.476 76.5756Z" fill="white"/>
<path d="M327.651 70.6407C327.314 70.3044 326.978 70.3043 326.305 69.968C324.959 69.6316 323.614 69.2952 322.268 69.6316C321.259 69.968 319.913 70.6407 318.904 71.6499C317.895 72.659 317.559 73.6682 317.559 73.6682C317.559 73.6682 318.231 72.659 318.904 71.9863C319.913 71.3135 321.259 70.6407 321.932 70.3043C323.277 69.968 324.623 69.968 325.969 69.968C326.641 70.6407 327.314 70.6407 327.651 70.6407L327.987 70.9771C327.987 70.9771 327.651 70.9771 327.651 70.6407Z" fill="black" fill-opacity="0.37"/>
<path d="M115.047 38.3479L131.195 52.1396L131.531 51.8032L116.393 38.6843C117.739 38.3479 118.748 37.3387 119.421 35.3204C120.093 32.9657 119.084 30.9474 117.739 30.611C116.393 30.2746 114.711 31.6202 114.038 33.9749C113.366 35.9932 114.038 37.6751 115.047 38.3479Z" fill="black" fill-opacity="0.37"/>
<path d="M107.983 75.6866L118.748 85.1053L119.084 84.7689L108.992 76.0229C110.338 75.6866 111.347 74.6774 112.02 72.6591C112.693 70.6408 111.684 68.2861 110.338 67.9497C108.992 67.6133 107.31 68.9589 106.638 71.3136C106.301 72.9955 106.638 75.0138 107.983 75.6866Z" fill="black" fill-opacity="0.37"/>
<path d="M92.509 72.659L115.048 92.1693L115.384 91.8329L93.8546 72.9954C95.2002 72.659 96.2094 71.6499 96.8822 69.6316C97.555 67.2769 96.5458 65.2586 95.2002 64.9222C93.8546 64.5858 92.1726 65.9313 91.4998 68.286C90.827 70.3043 91.4998 72.3226 92.509 72.659Z" fill="black" fill-opacity="0.37"/>
<path d="M109.329 49.4485L131.867 68.9588L132.204 68.6224L110.674 49.7849C112.02 49.4485 113.029 48.4394 113.702 46.4211C114.375 44.0664 113.366 42.0481 112.02 41.7117C110.674 41.3753 108.993 42.7208 108.32 45.0755C107.647 47.0938 108.32 49.1121 109.329 49.4485Z" fill="black" fill-opacity="0.37"/>
<path d="M112.02 64.9222L125.476 76.6956L125.812 76.3593L113.029 65.595C114.375 65.2586 115.384 64.2494 116.057 62.2311C116.73 59.8764 115.72 57.8581 114.375 57.5217C113.029 57.1853 111.347 58.5309 110.674 60.8856C110.338 62.5675 110.674 64.2494 112.02 64.9222Z" fill="black" fill-opacity="0.37"/>
<path d="M113.702 90.4874L130.522 67.2769L132.204 68.6224L115.384 91.8329L113.702 90.4874Z" fill="black" fill-opacity="0.37"/>
<path d="M121.103 73.3318L127.495 64.2495L129.177 65.595L122.785 74.341L121.103 73.3318Z" fill="black" fill-opacity="0.37"/>
<path d="M106.974 51.1305L112.693 41.0389L113.702 41.3753L107.647 51.8032L106.974 51.1305Z" fill="black" fill-opacity="0.37"/>
<path d="M115.384 41.3753L121.439 30.9474L122.112 31.2838L116.057 41.7117L115.384 41.3753Z" fill="black" fill-opacity="0.37"/>
<path d="M118.075 43.7301L124.13 33.3021L124.803 33.6385L119.084 44.0664L118.075 43.7301Z" fill="black" fill-opacity="0.37"/>
<path d="M348.507 26.238C348.171 26.238 348.171 26.238 348.507 26.238C348.171 26.238 348.171 26.238 348.171 26.238C347.498 25.9016 346.825 25.5652 346.152 25.5652C345.479 25.5652 344.807 25.5652 344.134 25.9016C343.461 26.238 343.125 26.5744 342.452 26.5744C342.115 26.9108 341.779 26.9108 341.106 26.9108H340.77V27.2472L350.525 30.9474C349.853 31.2838 349.516 32.2929 349.516 33.3021C349.516 34.6476 350.525 35.3204 351.198 35.3204C351.871 35.3204 352.544 34.3112 352.544 32.9657C352.544 31.9565 351.871 30.9474 351.198 30.9474L345.479 28.9291C345.816 28.5927 346.152 28.2563 346.825 27.9199C347.498 27.2472 348.171 26.9108 349.18 26.9108C350.189 26.9108 351.198 27.5836 351.535 28.2563V27.9199C351.198 27.5836 350.862 27.2472 350.189 26.9108C349.516 26.238 348.843 25.9016 348.507 26.238ZM347.834 26.238C347.834 26.238 347.498 26.238 347.834 26.238C346.825 26.5744 346.152 26.9108 345.479 27.2472C344.807 27.5836 344.134 27.5836 343.461 27.5836L343.125 27.2472C343.797 26.5744 344.47 26.238 345.143 25.9016C345.479 25.5652 346.489 25.5652 347.834 26.238Z" fill="black" fill-opacity="0.37"/>
<path d="M67.9522 44.0664L59.5423 9.41876L58.5331 9.75515L66.2703 42.7208C64.5883 42.048 62.2335 42.3844 60.5515 44.0664C58.1967 46.0847 57.5239 48.7757 58.8695 50.4577C60.2151 52.1396 63.2427 51.8032 65.5975 49.7849C67.9522 48.103 68.625 45.7483 67.9522 44.0664Z" fill="black" fill-opacity="0.37"/>
<path d="M84.7723 23.5469L79.39 1.68195L78.3808 2.01833L83.4267 22.5378C81.7448 21.865 79.39 22.2014 77.708 23.8833C75.3532 25.9016 74.6804 28.5927 76.026 30.2746C77.3716 31.9565 80.3992 31.6202 82.7539 29.6019C84.7723 27.5835 85.4451 25.2289 84.7723 23.5469Z" fill="black" fill-opacity="0.37"/>
<path d="M59.5421 13.4554L58.5329 8.74599L79.3895 0L80.0623 4.373L59.5421 13.4554Z" fill="black" fill-opacity="0.37"/>
<path d="M204.974 48.0619L199.311 48.8596L199.734 51.8574L205.397 51.0597L204.974 48.0619Z" fill="black" fill-opacity="0.37"/>
<path d="M192.082 67.9496L189.055 45.7482H188.382L191.41 66.9404C190.4 66.2677 188.718 66.6041 187.036 67.6132C185.354 68.9588 184.682 70.9771 185.354 71.9862C186.364 73.3318 188.382 73.3318 190.064 71.9862C191.746 70.6407 192.419 68.9588 192.082 67.9496Z" fill="black" fill-opacity="0.37"/>
<path d="M218.658 64.5858L215.294 41.7117H214.621L217.649 63.5767C216.64 62.9039 214.958 63.2403 213.276 64.2494C211.594 65.595 210.921 67.6133 211.594 68.6224C212.603 69.968 214.621 69.968 216.303 68.6224C218.322 67.2769 218.994 65.595 218.658 64.5858Z" fill="black" fill-opacity="0.37"/>
<path d="M206.884 58.8673L204.865 43.3936H204.193L206.211 57.8582C205.202 57.1854 203.52 57.5218 201.838 58.5309C200.156 59.8765 199.483 61.8948 200.156 62.9039C201.165 64.2495 203.183 64.2495 204.865 62.9039C206.547 61.8948 207.557 60.2128 206.884 58.8673Z" fill="black" fill-opacity="0.37"/>
<path d="M215.267 41.5181L188.283 45.3109L188.705 48.309L215.689 44.5162L215.267 41.5181Z" fill="black" fill-opacity="0.37"/>
<path d="M44.0678 84.7688C51.1321 69.2952 66.27 59.54 80.0623 52.1395C88.4722 47.7666 96.8821 43.7299 105.965 40.7025C114.711 37.675 124.467 35.3203 133.549 36.6659C137.923 37.3386 141.959 39.6933 143.978 44.0663C145.66 47.7666 144.987 52.4759 143.978 56.1762C141.959 64.5858 137.586 72.3226 133.213 80.0595C129.176 87.7963 124.803 95.5331 122.785 104.279C121.439 109.325 121.103 115.716 122.785 120.762C125.476 128.162 133.213 127.153 139.268 125.471C148.687 122.444 157.097 116.725 165.171 111.007C171.899 105.961 178.627 100.915 185.018 95.1968C197.465 84.4325 209.912 73.3318 224.713 66.9405C233.796 62.9039 243.888 61.2219 253.307 62.2311C257.68 62.9039 261.717 64.2494 265.417 66.9405C268.445 69.2952 271.136 72.3226 273.491 75.3501C278.873 81.0686 284.928 84.7688 292.329 86.1144C300.066 87.4599 308.139 85.778 315.204 82.7505C340.77 72.659 359.272 45.7482 362.972 16.8192C362.972 16.4828 362.636 16.4828 362.636 16.8192C360.281 35.3203 351.871 52.4759 339.424 65.2585C327.987 77.3684 311.503 86.7871 295.356 85.778C286.946 85.4416 279.882 81.405 273.827 75.0137C271.472 72.3226 269.117 69.6315 266.426 66.9405C263.399 64.2494 260.371 62.5675 256.671 61.8947C239.178 57.8581 220.676 66.2677 206.211 76.6956C196.792 83.4233 188.046 91.4965 178.963 99.2334C171.226 105.625 163.152 111.68 154.406 117.062C150.033 119.753 145.66 122.108 140.95 123.789C137.25 125.135 133.549 126.144 129.849 125.808C119.084 124.462 121.439 107.979 123.794 100.243C126.485 91.4965 131.195 83.4233 135.568 75.3501C139.268 68.286 143.305 60.8855 144.65 53.1487C145.323 49.7849 145.323 46.0846 143.641 43.0572C142.296 39.6933 139.268 37.675 135.904 36.6659C132.204 35.3203 128.167 35.3203 124.467 35.6567C119.757 35.9931 115.048 37.0022 110.674 38.3478C96.8821 42.048 83.4262 48.7757 70.9795 56.5125C60.2148 63.5766 49.4501 72.3226 44.0678 84.7688C43.7314 84.7688 44.0678 85.1052 44.0678 84.7688Z" fill="black" fill-opacity="0.37"/>
<path d="M32.9666 74.0046C40.7038 58.8673 56.178 49.7849 70.6431 42.7208C79.3894 38.6842 88.1357 34.984 97.2185 32.2929C106.301 29.6018 116.393 27.5835 125.476 29.2655C129.849 30.2746 134.222 32.6293 135.904 37.0023C137.586 40.7025 136.577 45.4119 135.568 49.1121C133.213 57.5217 128.503 65.2586 123.794 72.659C119.421 80.0595 114.711 87.7963 112.356 96.5423C111.011 101.588 110.338 107.979 112.02 113.025C114.375 120.426 122.448 120.089 128.503 118.407C137.923 115.716 147.005 110.334 155.415 104.952C162.48 100.243 169.544 95.1968 176.272 90.151C189.391 80.0595 202.174 69.2952 217.649 63.5767C227.068 59.8764 237.16 58.5309 246.915 59.8764C251.288 60.5492 255.662 62.2311 259.025 65.2586C262.053 67.9497 264.408 70.9771 267.099 74.0046C272.145 80.0595 278.537 84.0961 285.937 85.4417C293.674 86.7872 302.084 85.4417 309.485 83.087C335.724 74.0046 355.571 47.7666 360.281 19.1739C360.281 18.8375 359.945 18.8375 359.945 19.1739C356.917 37.3387 347.834 54.1579 334.715 66.9405C322.605 78.714 305.785 87.1236 288.965 85.778C280.219 85.1053 273.154 80.7323 267.435 74.341C265.081 71.6499 262.726 68.6224 260.035 65.9314C257.007 63.2403 253.98 61.5584 249.943 60.5492C232.114 55.5034 213.275 63.5767 197.801 73.3318C188.046 79.7231 178.963 87.46 169.544 94.524C161.47 100.579 153.06 106.297 143.978 111.343C139.605 113.698 134.895 116.053 130.185 117.735C126.485 119.08 122.448 119.753 118.748 119.08C107.647 117.398 110.674 100.915 113.366 93.1785C116.393 84.4325 121.439 76.6957 126.149 68.6224C130.185 61.8947 134.559 54.4943 135.904 46.7574C136.577 43.3936 136.577 40.0298 135.231 36.6659C133.886 33.3021 130.858 30.9474 127.494 29.9382C123.794 28.5927 119.757 28.5927 115.72 28.5927C111.011 28.9291 106.301 29.6018 101.592 30.611C87.463 33.9748 73.3343 40.0298 60.5512 47.0938C50.1229 53.1487 38.6854 61.5584 32.9666 74.0046C32.6302 74.0046 32.6302 74.0046 32.9666 74.0046Z" fill="black" fill-opacity="0.37"/>
<path d="M21.8658 62.5675C30.2758 47.7665 46.4228 39.0205 61.2243 32.6292C70.307 28.929 79.3898 25.5652 88.8089 23.2105C97.8916 20.8558 108.32 19.1739 117.739 21.5286C122.112 22.5377 126.485 25.2288 128.167 29.9382C129.513 33.9748 128.84 38.3478 127.495 42.048C124.803 50.4576 119.757 57.8581 115.048 64.9221C110.338 72.3226 105.292 79.7231 102.601 88.4691C100.919 93.5148 99.91 99.5697 101.592 104.952C103.947 112.352 112.02 112.352 118.412 111.007C128.167 108.652 137.586 103.606 146.333 98.5606C153.734 94.1876 161.134 89.4782 168.199 84.4324C181.654 74.6773 195.447 64.5858 211.257 59.2036C221.013 56.1761 231.441 54.8306 241.197 56.8489C245.906 57.8581 249.943 59.54 253.643 62.5675C256.671 65.2585 259.026 68.6224 261.717 71.6498C266.763 77.7048 272.818 82.0778 280.555 83.7597C288.629 85.4416 296.702 84.4324 304.439 82.0778C331.351 74.0045 352.544 48.4393 358.263 20.183C358.263 19.8466 357.927 19.8466 357.927 20.183C354.226 38.3478 344.471 54.8306 330.678 66.9404C317.895 78.0411 300.403 86.1144 283.583 84.0961C274.836 83.0869 267.772 78.7139 262.053 71.9862C259.699 68.9588 257.344 65.9313 254.653 63.5766C251.625 60.8855 248.597 58.8672 244.561 57.5217C226.395 51.8032 206.884 58.8672 191.074 68.286C180.645 74.3409 171.226 81.7414 161.471 88.4691C153.061 94.1876 143.978 99.5697 134.895 104.279C130.186 106.634 125.476 108.652 120.767 109.998C117.066 111.007 113.029 112.016 108.993 111.007C97.8916 108.652 101.256 92.5057 104.283 85.1052C107.647 76.3592 113.029 68.6224 118.075 61.2219C122.449 54.4942 126.822 47.4302 128.84 39.6933C129.513 36.3295 129.849 32.9656 128.504 29.6018C127.158 26.2379 124.131 23.8832 121.103 22.5377C117.403 20.8558 113.029 20.8558 109.329 20.8558C104.62 20.8558 99.5736 21.5286 94.864 22.5377C80.3989 25.2288 65.9339 30.9473 52.478 37.675C40.0313 42.3844 28.2574 50.4576 21.8658 62.5675C21.5295 62.2311 21.8658 62.5675 21.8658 62.5675Z" fill="black" fill-opacity="0.37"/>
<path d="M11.1008 50.4576C20.1836 35.9931 37.0034 27.9199 52.1413 22.2013C61.224 18.8375 70.6431 15.81 80.3986 13.7917C89.8177 11.7734 100.582 10.4279 110.002 13.1189C114.375 14.4645 118.748 17.1556 120.43 21.8649C121.775 25.9016 120.766 30.2745 119.421 33.9748C116.393 42.3844 111.011 49.4485 105.965 56.5125C100.919 63.5766 95.5365 70.9771 92.5089 79.3867C90.8269 84.4324 89.4814 90.4874 91.1633 95.8695C93.1817 103.27 101.592 103.606 107.983 102.597C118.075 100.915 127.831 96.2059 136.913 91.1601C144.65 87.1235 152.051 82.7505 159.452 78.0411C173.581 68.9588 187.709 59.2036 204.193 54.4942C213.948 51.8032 224.713 50.794 234.805 53.1487C239.514 54.1578 243.551 56.1762 247.252 59.54C250.279 62.2311 252.634 65.5949 254.989 68.9588C260.035 75.3501 266.09 79.7231 273.827 81.7414C281.9 83.7597 290.31 83.0869 298.384 81.0686C326.305 74.0045 348.507 49.1121 355.235 21.1922C355.235 20.8558 354.899 20.8558 354.899 21.1922C350.525 39.3569 340.097 55.167 325.632 66.9405C312.176 77.7048 294.347 85.1052 277.191 82.4141C268.445 81.0686 261.044 76.3592 255.325 69.2951C252.97 66.2677 250.616 63.2402 248.261 60.5492C245.57 57.5217 242.206 55.5034 238.169 54.1578C220.003 47.7665 199.82 54.1578 183.336 62.9038C172.571 68.6224 162.816 75.6865 152.388 82.0778C143.641 87.4599 134.222 92.5057 124.803 96.8787C120.093 98.897 115.048 100.915 110.002 101.924C105.965 102.934 101.928 103.606 97.8913 102.597C86.4538 99.9061 90.8269 83.7597 93.8545 76.3592C97.5549 67.9496 103.274 60.5492 108.656 52.8123C113.366 46.421 118.075 39.3569 120.093 31.6201C121.103 28.2562 121.439 24.8924 120.093 21.5286C118.748 18.1647 115.72 15.4736 112.693 14.1281C108.992 12.4462 104.619 12.1098 100.582 11.7734C95.5365 11.7734 90.4905 12.1098 85.781 12.7826C70.9795 14.8009 55.8416 20.183 42.3858 26.2379C30.2755 31.2837 17.8288 38.6842 11.1008 50.4576C10.7644 50.4576 10.7644 50.794 11.1008 50.4576Z" fill="black" fill-opacity="0.37"/>
<path d="M0.336221 38.3478C10.0917 24.2197 27.248 16.8192 43.0587 11.437C52.4778 8.40959 62.2333 5.71851 72.3252 4.03659C82.0807 2.35467 92.8454 1.6819 102.265 4.37298C106.974 5.71851 111.011 8.74597 112.356 13.4554C113.702 17.492 112.356 21.865 110.674 25.5652C107.31 33.6384 101.592 40.7025 96.2094 47.4302C90.827 54.4943 85.1083 61.5583 81.7443 69.9679C79.7259 75.0137 78.3803 81.0686 79.7259 86.4508C81.7443 94.1876 90.1542 94.524 96.5458 93.8512C106.974 92.5057 116.73 88.1327 126.149 83.7597C134.222 80.0595 141.959 75.6865 149.697 71.3135C164.498 62.5675 178.963 53.4851 195.783 49.4485C205.875 47.0938 216.976 46.7574 227.068 49.4485C231.777 50.794 235.814 52.8123 239.515 56.1762C242.542 59.2036 244.897 62.5675 247.252 65.9313C251.961 72.3226 258.016 77.3684 266.09 79.7231C274.163 82.0778 282.91 81.7414 290.983 80.0595C319.577 74.0046 343.125 50.1213 350.862 22.5377C350.862 22.2014 350.526 22.2014 350.526 22.5377C345.48 40.3661 334.379 56.1762 319.241 66.9405C305.112 77.032 286.61 83.7597 269.117 80.3959C260.035 78.7139 252.97 73.6682 247.252 66.6041C244.897 63.5766 242.879 60.2128 240.187 57.5217C237.496 54.4943 234.132 52.476 230.095 50.794C211.594 43.73 191.073 49.4485 173.917 57.5217C162.816 62.9039 152.724 69.6316 141.959 75.3501C132.877 80.3959 123.121 85.1052 113.366 89.1419C108.32 91.1602 103.274 92.8421 98.2278 93.8512C94.191 94.524 89.8178 95.1968 86.1175 93.8512C74.68 90.8238 79.3895 74.6773 82.7535 67.6133C86.7903 59.2036 92.8454 52.1396 98.5642 44.7391C103.61 38.3478 108.656 31.6201 111.011 23.8833C112.02 20.5194 112.356 17.1556 111.347 13.7917C110.338 10.0915 107.31 7.73682 103.947 6.0549C100.246 4.03659 95.873 3.70021 91.8362 3.36382C86.7903 3.02744 81.7443 3.36382 76.6984 3.70021C62.5697 4.70936 47.0954 9.08236 32.9667 14.8009C20.52 19.8467 7.73696 26.5744 0.336221 38.3478C-0.000175923 38.3478 -0.000175923 38.3478 0.336221 38.3478Z" fill="black" fill-opacity="0.37"/>
</svg>
