<svg width="421" height="197" viewBox="0 0 421 197" fill="none" xmlns="http://www.w3.org/2000/svg">
<g clip-path="url(#clip0)">
<path d="M94.1803 179.574C95.2231 181.372 94.1479 183.839 91.8412 185.218C89.5346 186.597 86.8953 186.368 85.8525 184.57C84.8098 182.772 85.885 180.305 88.1916 178.926C90.4983 177.547 93.1376 177.776 94.1803 179.574Z" fill="black" fill-opacity="0.37"/>
<path d="M91.5757 155.837L89.6794 156.067L92.7521 181.396L94.6484 181.166L91.5757 155.837Z" fill="black" fill-opacity="0.37"/>
<path d="M113.652 172.401C114.695 174.199 113.619 176.666 111.313 178.045C109.006 179.425 106.367 179.195 105.324 177.397C104.281 175.6 105.357 173.133 107.663 171.753C109.834 170.39 112.626 170.739 113.652 172.401Z" fill="black" fill-opacity="0.37"/>
<path d="M110.982 148.122L109.085 148.353L112.158 173.682L114.054 173.452L110.982 148.122Z" fill="black" fill-opacity="0.37"/>
<path d="M90.0901 159.453L111.392 151.509L110.735 146.091L89.4 153.764L90.0901 159.453Z" fill="black" fill-opacity="0.37"/>
<path d="M111.02 155.026L110.364 153.232L90.6291 160.445L91.2849 162.239L111.02 155.026Z" fill="black" fill-opacity="0.37"/>
<path d="M281.523 92.3861C282.213 93.5395 281.597 95.2634 279.919 96.1543C278.375 97.0287 276.565 96.836 275.875 95.6827C275.186 94.5293 275.937 92.7889 277.48 91.9145C279.023 91.0401 280.833 91.2328 281.523 92.3861Z" fill="black" fill-opacity="0.37"/>
<path d="M279.752 76.6573L278.533 76.8052L280.587 93.7365L281.806 93.5886L279.752 76.6573Z" fill="black" fill-opacity="0.37"/>
<path d="M294.571 87.7794C295.261 88.9327 294.51 90.6731 292.967 91.5476C291.423 92.422 289.613 92.2293 288.924 91.0759C288.234 89.9226 288.985 88.1821 290.528 87.3077C292.055 86.2978 293.865 86.4906 294.571 87.7794Z" fill="black" fill-opacity="0.37"/>
<path d="M292.718 71.3734L291.499 71.5212L293.553 88.4526L294.772 88.3047L292.718 71.3734Z" fill="black" fill-opacity="0.37"/>
<path d="M278.796 78.9723L292.998 73.676L292.554 70.0189L278.336 75.1797L278.796 78.9723Z" fill="black" fill-opacity="0.37"/>
<path d="M348.565 62.6743C348.918 63.3187 348.627 64.3162 347.728 64.8375C346.829 65.3589 345.848 65.203 345.495 64.5586C345.142 63.9142 345.433 62.9168 346.332 62.3954C347.231 61.874 348.212 62.0299 348.565 62.6743Z" fill="black" fill-opacity="0.37"/>
<path d="M347.599 53.5826L346.922 53.6648L348.072 63.1464L348.75 63.0642L347.599 53.5826Z" fill="black" fill-opacity="0.37"/>
<path d="M355.904 59.7224C356.257 60.3668 355.965 61.3642 355.067 61.8856C354.168 62.407 353.187 62.2511 352.834 61.6067C352.481 60.9623 352.772 59.9649 353.671 59.4435C354.434 58.9386 355.415 59.0945 355.904 59.7224Z" fill="black" fill-opacity="0.37"/>
<path d="M354.803 50.6471L354.125 50.7292L355.276 60.2108L355.953 60.1287L354.803 50.6471Z" fill="black" fill-opacity="0.37"/>
<path d="M362.413 56.7337C362.766 57.378 362.475 58.3755 361.576 58.8969C360.677 59.4182 359.696 59.2624 359.343 58.618C358.99 57.9736 359.282 56.9761 360.18 56.4547C360.944 55.9498 361.925 56.1057 362.413 56.7337Z" fill="black" fill-opacity="0.37"/>
<path d="M361.312 47.6583L360.635 47.7405L361.785 57.222L362.463 57.1399L361.312 47.6583Z" fill="black" fill-opacity="0.37"/>
<path d="M347.103 55.1549L361.542 49.5548L361.263 47.2521L346.856 53.1231L347.103 55.1549Z" fill="black" fill-opacity="0.37"/>
<path d="M12.9788 95.9623C14.268 99.7917 11.1202 104.434 5.95266 106.023C0.801534 107.748 -4.50591 105.918 -5.79513 102.088C-7.08435 98.2587 -3.93655 93.616 1.23101 92.0271C6.51759 90.2862 11.8086 91.9809 12.9788 95.9623Z" fill="black" fill-opacity="0.37"/>
<path d="M18.5061 47.2905L15.7909 47.0173L10.6143 98.4708L13.3295 98.744L18.5061 47.2905Z" fill="black" fill-opacity="0.37"/>
<path d="M165.881 111.225C164.535 109.189 165.799 106.012 168.614 104.296C171.43 102.58 174.763 102.863 175.974 104.915C177.321 106.951 176.057 110.128 173.241 111.844C170.425 113.56 167.092 113.277 165.881 111.225Z" fill="black" fill-opacity="0.37"/>
<path d="M171.225 140.038L166.998 109.354L165.376 109.577L169.603 140.261L171.225 140.038Z" fill="black" fill-opacity="0.37"/>
<path d="M150.736 166.528C152.169 168.141 151.702 171.084 149.596 172.989C147.491 174.894 144.511 175.255 143.078 173.642C141.645 172.029 142.113 169.086 144.218 167.181C146.324 165.277 149.168 164.931 150.736 166.528Z" fill="black" fill-opacity="0.37"/>
<path d="M150.93 169.253C150.659 169.286 150.22 169.065 150.187 168.794L141.244 142.665C141.06 142.275 141.281 141.836 141.688 141.786C142.077 141.602 142.517 141.823 142.566 142.229L151.508 168.359C151.693 168.749 151.472 169.188 151.065 169.237C150.93 169.253 150.93 169.253 150.93 169.253Z" fill="black" fill-opacity="0.37"/>
<path d="M154.093 151.14C154.093 151.14 153.957 151.156 154.093 151.14C153.534 151.07 153.231 150.832 153.317 150.409C153.362 147.38 150.353 146.37 147.106 145.665L146.531 145.459C143.133 144.635 142.069 143.802 141.228 142.529C141.043 142.139 141.129 141.717 141.384 141.548C141.774 141.364 142.196 141.45 142.365 141.704C142.87 142.468 143.51 143.215 146.757 143.92L147.332 144.125C149.885 144.778 154.687 145.845 154.536 150.261C154.737 150.786 154.499 151.09 154.093 151.14Z" fill="black" fill-opacity="0.37"/>
<path d="M156.219 157.341C156.219 157.341 156.084 157.358 156.219 157.341C155.661 157.272 155.357 157.034 155.444 156.611C155.488 153.582 152.48 152.572 149.233 151.867L148.658 151.661C145.259 150.837 144.196 150.004 143.355 148.731C143.17 148.341 143.256 147.918 143.511 147.75C143.901 147.565 144.323 147.652 144.492 147.906C144.997 148.669 145.637 149.416 148.884 150.122L149.458 150.327C152.012 150.98 156.814 152.046 156.663 156.463C156.864 156.988 156.49 157.309 156.219 157.341Z" fill="black" fill-opacity="0.37"/>
<path d="M78.946 115.174C79.8164 117.817 77.6905 120.686 74.2509 121.791C70.8114 122.895 67.3634 121.664 66.5094 119.156C65.6389 116.513 67.7649 113.644 71.3399 112.523C74.6276 111.299 78.0756 112.53 78.946 115.174Z" fill="black" fill-opacity="0.37"/>
<path d="M78.3961 117.44L78.2607 117.456C77.8379 117.37 77.3823 117.013 77.452 116.454L82.1395 74.6526C82.2257 74.2298 82.5827 73.7742 83.141 73.8439C83.5638 73.9301 84.0194 74.2871 83.9497 74.8454L79.2621 116.647C79.176 117.07 78.8025 117.39 78.3961 117.44Z" fill="black" fill-opacity="0.37"/>
<path d="M92.4027 91.2752C92.2672 91.2917 92.1318 91.3081 91.8445 91.2055C91.4052 90.9839 91.2041 90.4585 91.4257 90.0193C93.0795 86.6575 90.1444 83.9898 86.9549 81.4904L86.4828 80.9978C83.125 78.244 82.4024 76.8197 82.037 74.9399C81.9712 74.3981 82.3283 73.9424 82.7346 73.8931C83.141 73.8438 83.5966 74.2009 83.6459 74.6072C83.7938 75.8263 84.1962 76.877 87.4021 79.5119L88.0097 79.988C90.5917 82.0113 95.4519 85.8199 92.8952 90.8032C92.9281 91.0741 92.6736 91.2424 92.4027 91.2752Z" fill="black" fill-opacity="0.37"/>
<path d="M90.9469 105.334C90.8114 105.35 90.676 105.367 90.3886 105.264C89.9494 105.042 89.7483 104.517 89.9699 104.078C91.6237 100.716 88.6886 98.0483 85.4991 95.5488L84.8916 95.0728C81.5338 92.3189 80.8112 90.8947 80.4457 89.0148C80.38 88.473 80.737 88.0173 81.1434 87.968C81.6688 87.7669 82.1408 88.2594 82.1901 88.6657C82.338 89.8848 82.7404 90.9355 85.9463 93.5704L86.5539 94.0465C89.1359 96.0698 93.9961 99.8784 91.4394 104.862C91.4723 105.133 91.2178 105.301 90.9469 105.334Z" fill="black" fill-opacity="0.37"/>
<path d="M90.1431 112.304C90.0076 112.32 89.8722 112.336 89.5848 112.234C89.1456 112.012 88.9444 111.487 89.166 111.048C90.8199 107.686 87.8848 105.018 84.6953 102.519L84.2068 101.891C80.8489 99.1368 80.1264 97.7126 79.7609 95.8327C79.6952 95.2909 80.0522 94.8352 80.4586 94.7859C81.0004 94.7202 81.456 95.0773 81.5053 95.4836C81.6532 96.7027 82.0556 97.7534 85.2615 100.388L85.869 100.864C88.451 102.888 93.3113 106.696 90.89 111.663C90.8039 112.086 90.414 112.271 90.1431 112.304Z" fill="black" fill-opacity="0.37"/>
<path d="M91.7178 98.0932C91.5824 98.1097 91.4469 98.1261 91.1596 98.0235C90.7204 97.8019 90.5192 97.2765 90.7408 96.8373C92.3946 93.4755 89.4596 90.8078 86.2701 88.3084L85.6625 87.8323C82.3047 85.0784 81.5821 83.6542 81.2167 81.7743C81.1509 81.2325 81.508 80.7769 81.9143 80.7276C82.4397 80.5264 82.9118 81.0189 82.9611 81.4252C83.109 82.6443 83.5113 83.695 86.7173 86.3299L87.3248 86.806C89.9068 88.8293 94.767 92.6379 92.2103 97.6212C92.2432 97.8921 91.9887 98.0604 91.7178 98.0932Z" fill="black" fill-opacity="0.37"/>
<path d="M270.049 62.1356C271.629 60.4144 271.874 58.0692 270.597 56.8974C269.32 55.7257 267.004 56.171 265.425 57.8921C263.846 59.6133 263.6 61.9585 264.877 63.1303C266.154 64.3021 268.47 63.8567 270.049 62.1356Z" fill="black" fill-opacity="0.37"/>
<path d="M270.664 58.38C270.393 58.4129 270.241 58.2939 270.073 58.0394L259.398 33.4948C259.23 33.2403 259.468 32.9366 259.722 32.7683C259.977 32.5999 260.281 32.838 260.449 33.0924L271.123 57.637C271.292 57.8915 271.054 58.1953 270.799 58.3636C270.799 58.3636 270.799 58.3636 270.664 58.38Z" fill="black" fill-opacity="0.37"/>
<path d="M270.174 39.6108C269.768 39.6601 269.599 39.4056 269.566 39.1347C269.406 36.6802 267.005 36.1468 264.349 35.7818L263.791 35.712C261.119 35.2115 260.24 34.7683 259.432 33.7669C259.263 33.5124 259.23 33.2415 259.468 32.9377C259.723 32.7694 259.994 32.7365 260.298 32.9746C260.786 33.6025 261.394 34.0786 263.914 34.4601L264.337 34.5463C266.434 34.8416 270.358 35.4651 270.498 38.8842C270.683 39.2742 270.445 39.5779 270.174 39.6108Z" fill="black" fill-opacity="0.37"/>
<path d="M273.782 47.8311C273.375 47.8804 273.207 47.6259 273.174 47.355C273.014 44.9005 270.612 44.3671 267.957 44.002L267.534 43.9159C264.862 43.4154 263.983 42.9722 263.175 41.9707C263.006 41.7162 262.973 41.4453 263.212 41.1416C263.466 40.9733 263.737 40.9404 264.041 41.1784C264.529 41.8064 265.137 42.2825 267.657 42.664L268.08 42.7501C270.177 43.0455 274.101 43.669 274.241 47.0881C274.29 47.4945 274.188 47.7818 273.782 47.8311Z" fill="black" fill-opacity="0.37"/>
<path d="M272.02 43.5091C271.885 43.5255 271.885 43.5255 272.02 43.5091C271.614 43.5584 271.446 43.3039 271.413 43.033C271.252 40.5784 268.851 40.0451 266.195 39.68L265.773 39.5939C263.1 39.0934 262.222 38.6501 261.413 37.6487C261.245 37.3942 261.212 37.1233 261.45 36.8196C261.705 36.6512 261.976 36.6184 262.279 36.8564C262.768 37.4844 263.375 37.9605 265.896 38.3419L266.318 38.4281C268.416 38.7234 272.34 39.347 272.48 42.7661C272.546 43.3079 272.291 43.4762 272.02 43.5091Z" fill="black" fill-opacity="0.37"/>
<path d="M26.8307 126.307C25.5908 122.883 28.2461 118.713 32.8554 117.054C37.4647 115.395 42.1811 116.885 43.421 120.308C44.6609 123.731 42.0056 127.902 37.3963 129.56C32.787 131.219 28.0706 129.73 26.8307 126.307Z" fill="black" fill-opacity="0.37"/>
<path d="M24.754 171.503C24.6186 171.519 24.6186 171.519 24.4831 171.535C23.7894 171.482 23.3009 170.854 23.3706 170.296L26.5514 124.004C26.6047 123.31 27.2326 122.822 27.7909 122.891C28.4845 122.945 28.9731 123.573 28.9033 124.131L25.7226 170.423C25.6529 170.981 25.2958 171.437 24.754 171.503Z" fill="black" fill-opacity="0.37"/>
<path d="M24.7211 171.232C24.5857 171.248 24.3148 171.281 24.1629 171.162C23.5882 170.957 23.2352 170.312 23.4239 169.602C24.2282 167.168 25.6729 165.481 30.6925 162.673L31.5914 162.152C36.373 159.647 41.1054 156.737 39.5493 151.84C39.3316 151.179 39.6723 150.588 40.3331 150.371C40.9939 150.153 41.585 150.494 41.8026 151.154C43.909 158.321 36.5498 162.237 32.6834 164.356L31.7846 164.877C26.8839 167.533 26.1001 169.003 25.5871 170.439C25.501 170.862 25.1275 171.182 24.7211 171.232Z" fill="black" fill-opacity="0.37"/>
<path d="M308.161 36.651C307.984 38.5966 306.252 40.1812 304.307 40.0048C302.361 39.8285 300.777 38.0965 300.953 36.1509C301.129 34.2053 302.861 32.6208 304.807 32.7971C306.752 32.9734 308.337 34.7054 308.161 36.651Z" fill="black" fill-opacity="0.37"/>
<path d="M313.088 59.1439L311.837 59.0209L313.423 36.9749C311.486 39.1341 309.569 40.3287 307.537 40.5752C305.641 40.8052 303.765 40.0707 302.078 38.626L302.927 37.6983C304.463 39.0239 305.899 39.5369 307.525 39.3397C309.557 39.0932 311.695 37.4594 313.837 34.7255C313.956 34.5736 314.346 34.3889 314.498 34.5079C314.785 34.6105 314.954 34.8649 314.851 35.1523L313.088 59.1439Z" fill="black" fill-opacity="0.37"/>
<path d="M307.484 45.8043C307.308 47.7499 305.576 49.3345 303.63 49.1582C301.685 48.9819 300.1 47.2499 300.277 45.3043C300.453 43.3587 302.185 41.7741 304.13 41.9504C306.212 42.1103 307.661 43.8587 307.484 45.8043Z" fill="black" fill-opacity="0.37"/>
<path d="M306.861 49.7285C304.964 49.9586 302.953 49.2404 301.266 47.7958L302.116 46.8681C303.651 48.1937 305.087 48.7066 306.713 48.5095C308.745 48.263 310.899 46.7646 313.025 43.8953L314.072 44.593C311.708 47.7661 309.299 49.4328 306.861 49.7285Z" fill="black" fill-opacity="0.37"/>
<path d="M205.168 123.502C205.837 125.62 204.729 127.816 202.747 128.469C200.629 129.138 198.433 128.03 197.78 126.048C197.111 123.93 198.219 121.734 200.201 121.081C202.303 120.276 204.499 121.384 205.168 123.502Z" fill="black" fill-opacity="0.37"/>
<path d="M218.444 144.57L210.709 121.593C209.699 124.602 208.169 126.712 206.235 127.771C204.438 128.814 202.254 128.941 199.82 128.137L200.214 126.852C202.225 127.57 204.003 127.492 205.546 126.617C207.614 125.542 209.096 123.026 210.007 119.204C210.109 118.917 210.347 118.613 210.635 118.716C210.906 118.683 211.209 118.921 211.242 119.192L219.63 144.151L218.444 144.57Z" fill="black" fill-opacity="0.37"/>
<path d="M208.383 133.008C209.052 135.126 207.944 137.322 205.961 137.975C203.843 138.644 201.647 137.536 200.995 135.554C200.325 133.436 201.433 131.24 203.416 130.587C205.517 129.782 207.713 130.89 208.383 133.008Z" fill="black" fill-opacity="0.37"/>
<path d="M206.942 138.131C205.723 138.279 204.471 138.156 203.035 137.643L203.429 136.358C205.44 137.076 207.217 136.998 208.761 136.124C210.829 135.048 212.311 132.532 213.222 128.71L214.506 129.104C213.493 133.213 211.773 136.033 209.331 137.429C208.67 137.646 207.755 138.032 206.942 138.131Z" fill="black" fill-opacity="0.37"/>
<path d="M238.829 67.8773L238.151 67.9595L241.372 94.5078L242.049 94.4257L238.829 67.8773Z" fill="black" fill-opacity="0.37"/>
<path d="M238.829 67.8773L238.151 67.9595L241.372 94.5078L242.049 94.4257L238.829 67.8773Z" fill="black" fill-opacity="0.37"/>
<path d="M244.255 65.0199L243.577 65.1021L246.798 91.6504L247.475 91.5682L244.255 65.0199Z" fill="black" fill-opacity="0.37"/>
<path d="M251.04 77.3153L235.565 74.7163L235.452 75.3891L250.927 77.9882L251.04 77.3153Z" fill="black" fill-opacity="0.37"/>
<path d="M250.603 84.098L235.128 81.499L235.015 82.1718L250.49 84.7709L250.603 84.098Z" fill="black" fill-opacity="0.37"/>
<path d="M250.603 84.098L235.128 81.499L235.015 82.1718L250.49 84.7709L250.603 84.098Z" fill="black" fill-opacity="0.37"/>
<path d="M373.033 63.8297L372.355 63.9119L374.015 77.5924L374.692 77.5102L373.033 63.8297Z" fill="black" fill-opacity="0.37"/>
<path d="M373.033 63.8297L372.355 63.9119L374.015 77.5924L374.692 77.5102L373.033 63.8297Z" fill="black" fill-opacity="0.37"/>
<path d="M375.729 62.2655L375.052 62.3477L376.712 76.0282L377.389 75.946L375.729 62.2655Z" fill="black" fill-opacity="0.37"/>
<path d="M379.012 68.5155L371.073 67.1812L370.96 67.8539L378.899 69.1882L379.012 68.5155Z" fill="black" fill-opacity="0.37"/>
<path d="M378.904 71.9708L370.965 70.6382L370.852 71.311L378.791 72.6436L378.904 71.9708Z" fill="black" fill-opacity="0.37"/>
<path d="M378.904 71.9708L370.965 70.6382L370.852 71.311L378.791 72.6436L378.904 71.9708Z" fill="black" fill-opacity="0.37"/>
<path d="M141.705 113.608C141.837 114.692 141.004 115.755 139.92 115.886C138.836 116.018 137.773 115.184 137.642 114.101C137.51 113.017 138.344 111.954 139.427 111.823C140.511 111.691 141.574 112.524 141.705 113.608Z" fill="black" fill-opacity="0.37"/>
<path d="M141.074 124.267C142.196 124.131 142.996 123.111 142.86 121.989C142.724 120.867 141.704 120.068 140.581 120.204C139.459 120.34 138.66 121.36 138.796 122.482C138.932 123.604 139.952 124.404 141.074 124.267Z" fill="black" fill-opacity="0.37"/>
<path d="M124.844 115.104C125.09 117.135 123.662 118.958 121.63 119.204C119.599 119.451 117.776 118.023 117.529 115.991C117.283 113.959 118.711 112.137 120.743 111.89C122.758 111.508 124.597 113.072 124.844 115.104Z" fill="black" fill-opacity="0.37"/>
<path d="M126.689 138.245C126.689 138.245 129.217 136.427 131.77 132.543C133.046 130.602 134.273 128.254 134.909 125.565C135.287 124.145 135.529 122.741 135.5 121.37C135.59 119.847 135.426 118.493 135.11 117.019C134.494 114.208 132.572 111.967 130.257 111.011C127.942 110.055 125.369 110.367 123.674 111.122C121.995 112.013 121.178 113.212 121.022 114.193C120.985 115.022 121.051 115.564 121.051 115.564C121.183 116.647 120.469 117.559 119.52 117.674C118.437 117.805 117.525 117.091 117.41 116.143C117.41 116.143 117.41 116.143 117.394 116.007L117.345 115.601C117.345 115.601 117.23 114.653 117.845 112.929C118.325 111.221 119.992 109.095 122.618 108.089C125.11 107.1 128.529 106.96 131.468 108.527C134.526 109.943 136.579 113.268 136.973 116.518C137.154 118.008 137.232 119.786 137.142 121.309C137.052 122.831 136.691 124.387 136.313 125.807C135.423 128.664 134.077 131.164 132.648 132.987C129.808 136.767 127.145 138.602 127.145 138.602C127.026 138.754 126.874 138.635 126.722 138.516C126.586 138.533 126.57 138.397 126.689 138.245Z" fill="black" fill-opacity="0.37"/>
<path d="M326.021 86.4383C316.547 80.8528 327.185 73.3773 327.185 73.3773C324.599 72.454 322.083 70.9724 323.79 66.9169C325.583 62.4386 333.443 60.3855 329.465 55.9201C329.465 55.9201 336.37 56.1821 332.586 63.5133C330.251 68.0574 325.255 68.8008 330.485 73.3893C330.469 73.2538 322.235 80.1627 326.021 86.4383Z" fill="black" fill-opacity="0.37"/>
<path d="M-14.1961 62.2864C-14.1961 62.2864 -12.3695 62.6146 -9.13909 63.1848C-7.46439 63.394 -5.48592 63.8412 -3.06824 64.51C-0.666983 65.0434 2.15705 65.6629 5.16583 66.6724C17.3897 70 34.1865 77.0337 53.1713 87.3756C62.7315 92.5382 72.9156 98.3125 83.9124 103.988C94.9092 109.664 106.854 115.224 119.993 118.166C126.622 119.561 133.457 120.381 140.414 119.95C147.371 119.518 154.214 118.138 160.941 115.81C167.668 113.482 173.976 109.968 179.981 106.216C185.953 102.193 191.605 97.7962 197.072 93.0097C208.022 83.5721 217.876 73.0305 228.875 63.9993C234.375 59.4837 240.195 55.3416 246.265 52.1312C252.471 48.9043 259.063 46.5928 265.635 45.2459C279.048 42.5191 292.212 43.3962 304.476 44.7947C316.758 46.3287 328.325 48.7739 338.911 51.0633C359.964 55.7939 377.634 59.8352 390.187 61.3363C396.479 62.2223 401.335 62.5953 404.787 62.7264C408.103 62.8738 409.913 63.0665 409.913 63.0665C409.913 63.0665 408.12 63.0092 404.787 62.7264C401.47 62.5789 396.463 62.0868 390.187 61.3363C377.634 59.8352 359.98 55.9293 338.792 51.2151C328.206 48.9258 316.655 46.616 304.374 45.082C292.109 43.6836 278.81 42.8229 265.532 45.5332C258.977 47.0156 252.369 49.1917 246.315 52.5375C240.244 55.7479 234.424 59.89 228.925 64.4056C218.061 73.4204 208.087 84.1139 197.137 93.5515C191.67 98.338 186.019 102.735 180.047 106.758C173.907 110.526 167.598 114.04 160.887 116.504C154.16 118.832 147.199 120.364 140.106 120.812C133.149 121.243 126.179 120.439 119.55 119.044C106.276 116.119 94.1951 110.575 83.1983 104.899C72.4724 99.1909 62.2883 93.4167 52.7281 88.254C33.7433 77.9122 16.9629 71.0139 4.8745 67.6698C1.88215 66.7958 -0.822864 66.0244 -3.20768 65.6265C-5.60894 65.0931 -7.58741 64.6459 -9.27854 64.3013C-12.6444 63.7475 -14.471 63.4193 -14.471 63.4193L-14.1961 62.2864Z" fill="black" fill-opacity="0.37"/>
<path d="M-11.7652 82.3333C-11.7652 82.3333 -10.074 82.6779 -6.72461 83.0962C-3.49423 83.6665 1.4273 84.5813 7.412 86.3293C13.3803 87.9419 20.6662 90.2192 28.7444 93.3626C36.8226 96.506 45.812 100.363 55.5609 104.816C65.2934 109.133 75.8017 114.181 87.1924 118.572C98.5832 122.962 110.873 126.832 124.238 128.234C137.467 129.653 151.418 127.961 164.384 122.677C177.535 117.783 189.158 109.363 200.006 100.213C210.854 91.0629 220.893 80.9112 231.621 71.9129C242.502 63.0335 254.696 55.9191 267.806 52.9543C274.328 51.201 280.879 50.8186 287.311 50.5881C293.808 50.8995 299.969 50.7019 306.093 51.3334C318.325 52.461 329.675 54.2454 340.211 56.1284C350.748 58.0114 360.337 60.0094 368.895 61.4452C377.47 63.0165 384.879 64.0419 391.155 64.7924C397.312 65.6949 402.254 65.6451 405.587 65.928C408.92 66.2109 410.713 66.2682 410.713 66.2682C410.713 66.2682 408.92 66.2109 405.587 65.928C402.254 65.6451 397.312 65.6949 391.155 64.7924C385.014 64.0255 377.486 63.1519 368.911 61.5807C360.353 60.1449 350.781 58.2823 340.244 56.3993C329.708 54.5163 318.358 52.7319 306.126 51.6043C300.002 50.9728 293.706 51.1868 287.343 50.859C280.928 51.225 274.377 51.6073 267.99 53.3442C254.864 56.1735 242.822 63.407 232.077 72.2699C221.332 81.1328 211.309 91.42 200.462 100.57C189.614 109.72 177.855 118.157 164.585 123.202C151.484 128.503 137.397 130.212 124.032 128.809C110.684 127.542 98.2425 123.554 86.8518 119.163C75.4611 114.772 64.9692 109.86 55.2367 105.543C45.4878 101.09 36.4984 97.2325 28.4366 94.2246C20.3584 91.0812 13.2244 88.9229 7.10423 87.1913C1.03338 85.8661 -3.61724 84.9184 -6.98308 84.3646C-10.2135 83.7944 -12.0236 83.6016 -12.0236 83.6016L-11.7652 82.3333Z" fill="black" fill-opacity="0.37"/>
<path d="M-9.4523 102.532C-9.4523 102.532 -7.7776 102.741 -4.41176 103.295C-1.18137 103.865 3.67442 104.238 9.62626 105.715C12.6022 106.454 15.968 107.008 19.535 108.087C23.102 109.166 26.94 110.212 31.0652 111.361C35.0714 112.662 39.5169 114.184 43.9623 115.707C48.4242 117.365 53.1734 119.125 58.1935 120.853C68.1147 124.46 78.7789 128.526 90.3255 131.936C101.856 135.21 114.334 138.37 127.432 138.705C140.53 139.04 154.128 136.704 166.992 131.707C170.127 130.365 173.214 128.616 176.333 127.138C177.893 126.399 179.453 125.66 180.996 124.785L185.322 121.924L194.093 116.049C196.859 113.927 199.625 111.805 202.375 109.547C213.256 100.668 223.176 90.6678 233.937 81.9403C244.547 73.0939 256.605 65.9958 269.362 62.3866C275.732 60.5143 282.082 59.6066 288.481 59.1052C294.794 59.0266 301.058 58.5417 307.014 58.9187C319.163 59.3691 330.431 60.4762 340.918 61.9529C351.389 63.2941 360.895 64.6149 369.421 65.7798C377.946 66.9446 385.322 67.6992 391.43 68.1953C397.554 68.8268 402.361 68.7935 405.677 68.9409C408.994 69.0884 410.787 69.1457 410.787 69.1457C410.787 69.1457 408.994 69.0884 405.677 68.9409C402.344 68.658 397.554 68.8268 391.43 68.1953C385.322 67.6992 377.811 66.9611 369.421 65.7798C360.895 64.6149 351.405 63.4295 340.934 62.0883C330.463 60.7471 319.18 59.5045 307.046 59.1896C301.091 58.8126 294.843 59.433 288.531 59.5116C282.283 60.132 275.782 60.9207 269.563 62.912C256.79 66.3858 245.019 73.5864 234.409 82.4329C223.648 91.1603 213.863 101.144 202.999 110.158C200.385 112.4 197.483 114.539 194.733 116.796L185.962 122.671L181.636 125.532C180.093 126.407 178.533 127.146 176.974 127.885C173.854 129.363 170.768 131.112 167.632 132.454C154.65 137.602 141.051 139.939 127.818 139.62C114.297 139.199 101.819 136.04 90.1532 132.782C78.6066 129.372 67.807 125.322 58.0212 121.698C53.1366 119.954 48.2519 118.21 43.79 116.552C39.2091 115.046 34.9156 113.643 30.8929 112.207C26.7677 111.058 22.9297 110.012 19.3627 108.932C15.8121 107.989 12.4463 107.435 9.47038 106.696C3.51854 105.219 -1.33725 104.846 -4.55121 104.411C-7.76517 103.977 -9.57532 103.784 -9.57532 103.784L-9.4523 102.532Z" fill="black" fill-opacity="0.37"/>
<path d="M-7.00406 122.714C-7.00406 122.714 -5.32935 122.923 -1.99638 123.206C1.21758 123.641 6.04051 123.743 12.0949 124.933C18.1165 125.852 25.4393 127.3 33.6405 129.191C41.8581 131.218 51.1061 133.807 61.0641 136.585C71.0386 139.499 81.9942 142.568 93.5776 145.149C105.28 147.577 117.746 149.501 130.778 149.295C143.794 148.953 157.056 146.107 169.632 141.008C175.735 138.068 182.126 135.231 187.691 131.258C193.729 127.776 199.109 123.413 204.642 119.168C215.42 110.576 225.676 101.085 236.319 92.5095C247.13 84.1884 258.597 76.7497 270.984 72.3607C273.968 70.8992 277.219 70.5048 280.269 69.5851C283.335 68.8008 286.385 67.8811 289.484 67.3677C292.599 66.9898 295.714 66.6119 298.694 66.2504C300.184 66.0696 301.674 65.8889 303.164 65.7081C304.67 65.6628 306.177 65.6175 307.683 65.5722C313.709 65.391 319.447 65.1073 325.132 65.5172C330.784 65.6562 336.182 65.9635 341.325 66.4392C351.714 67.1031 361.204 68.2884 369.663 68.9115C378.156 69.8055 385.499 70.2892 391.455 70.6662C397.563 71.1623 402.353 70.9935 405.517 71.022C408.817 71.034 410.476 71.1077 410.476 71.1077C410.476 71.1077 408.682 71.0504 405.517 71.022C402.201 70.8745 397.427 71.1787 391.455 70.6662C385.364 70.3056 378.02 69.822 369.544 69.0634C361.085 68.4403 351.595 67.255 341.206 66.5911C336.063 66.1154 330.53 65.8245 325.029 65.8045C319.361 65.5301 313.606 65.6784 307.732 65.9786C306.226 66.0239 304.72 66.0692 303.213 66.1145C301.723 66.2952 300.233 66.476 298.743 66.6567C295.764 67.0182 292.648 67.3961 289.549 67.9095C286.45 68.4229 283.417 69.4781 280.335 70.1269C277.285 71.0466 274.034 71.441 271.05 72.9025C258.798 77.2751 247.331 84.7138 236.655 93.0184C226.013 101.594 215.892 111.068 204.995 119.812C199.462 124.057 194.082 128.421 188.044 131.902C182.343 135.892 176.088 138.713 169.849 141.669C157.138 146.784 143.741 149.646 130.741 150.124C117.574 150.347 105.108 148.423 93.4053 145.994C81.6864 143.43 70.8663 140.344 60.7728 137.583C50.7983 134.669 41.5668 132.216 33.3491 130.189C25.1479 128.297 17.9606 126.833 11.9391 125.914C6.03652 124.843 1.19715 124.606 -2.00037 124.306C-5.33335 124.023 -7.12707 123.966 -7.12707 123.966L-7.00406 122.714Z" fill="black" fill-opacity="0.37"/>
<path d="M-4.5722 142.761C-4.5722 142.761 -2.91393 142.834 0.402616 142.982C3.58371 143.146 8.39021 143.112 14.3953 143.896C26.4753 144.904 43.4564 147.792 63.75 151.928C73.8968 153.996 84.8564 155.965 96.5957 157.565C108.319 159.029 120.789 159.853 133.62 159.121C146.434 158.253 159.527 155.153 172.104 150.054C175.223 148.576 178.223 147.25 181.343 145.772C184.294 144.04 187.245 142.307 190.196 140.575C191.604 139.717 193.147 138.842 194.538 137.849L198.712 134.869C201.495 132.882 204.278 130.895 207.044 128.772C217.822 120.18 228.111 110.96 238.618 102.401C249.277 93.9612 260.474 86.5553 272.525 81.6574C275.373 80.2123 278.591 79.547 281.624 78.4918C284.674 77.5721 287.555 76.3979 290.654 75.8845C296.717 74.8742 302.713 73.3221 308.587 73.0219C311.583 72.7959 314.428 72.4508 317.289 72.2412C320.15 72.0316 323.043 72.0929 325.769 71.8997C328.511 71.842 331.253 71.7842 333.994 71.7265C336.617 71.8207 339.359 71.7629 341.847 71.8735C352.17 71.9957 361.577 72.5037 370.004 72.8559C378.431 73.2081 385.741 73.4208 391.664 73.527C397.739 73.7522 402.377 73.4644 405.678 73.4764C408.961 73.3529 410.62 73.4267 410.62 73.4267C410.62 73.4267 408.842 73.5048 405.678 73.4764C402.513 73.448 397.739 73.7522 391.681 73.6624C385.622 73.5727 378.312 73.36 369.885 73.0078C361.475 72.7911 352.051 72.1475 341.744 72.1608C339.121 72.0667 336.515 72.108 333.892 72.0138C331.15 72.0716 328.408 72.1293 325.666 72.187C322.924 72.2448 320.047 72.3189 317.186 72.5285C314.325 72.7381 311.481 73.0832 308.484 73.3092C302.611 73.6094 296.614 75.1616 290.552 76.1719C287.453 76.6853 284.588 77.9949 281.522 78.7792C278.488 79.8344 275.406 80.4832 272.422 81.9447C260.523 86.9617 249.327 94.3675 238.668 102.808C228.161 111.367 218.007 120.57 207.245 129.298C204.479 131.42 201.696 133.407 198.913 135.394L194.739 138.374C193.348 139.368 191.805 140.242 190.397 141.1C187.446 142.833 184.511 144.7 181.56 146.433C178.441 147.911 175.305 149.253 172.321 150.715C159.762 155.949 146.533 159.066 133.583 159.95C120.616 160.698 108.146 159.874 96.2879 158.427C84.5486 156.827 73.4372 154.739 63.3068 152.806C43.0296 148.806 26.0485 145.918 14.104 144.893C8.11531 144.245 3.42783 144.127 0.111284 143.979C-3.06981 143.815 -4.86353 143.758 -4.86353 143.758L-4.5722 142.761Z" fill="black" fill-opacity="0.37"/>
<path d="M-2.12384 162.943C-2.12384 162.943 -0.482001 162.881 2.81811 162.893C5.96634 162.786 10.7564 162.617 16.6958 162.859C28.6772 163.055 45.7484 164.42 66.202 166.475C86.6226 168.258 110.561 170.714 136.075 168.032C148.824 166.623 161.782 163.539 174.222 158.456C186.679 153.509 198.418 146.037 209.077 137.597C219.888 129.276 229.873 119.818 240.38 111.259C250.752 102.716 261.932 95.1749 273.695 90.1744C279.577 87.6741 285.66 85.6992 291.689 84.418C297.735 83.2722 303.597 81.7365 309.437 81.1654C312.417 80.8039 315.262 80.4589 318.09 79.9783C320.951 79.7687 323.812 79.5591 326.537 79.3659C332.107 78.8277 337.439 78.5932 342.516 78.5271C352.774 78.1074 362.251 78.0572 370.493 78.0195C378.871 77.9653 386.132 77.7717 392.038 77.7424C398.08 77.6967 402.702 77.2735 405.986 77.15C409.134 77.043 410.911 76.9648 410.911 76.9648C410.911 76.9648 409.27 77.0266 405.986 77.15C402.838 77.257 398.064 77.5612 392.038 77.7424C385.996 77.7882 378.735 77.9818 370.51 78.155C362.149 78.3446 352.79 78.2429 342.549 78.798C337.488 78.9996 332.021 79.2505 326.586 79.7723C323.861 79.9655 321 80.1751 318.156 80.5201C315.311 80.8652 312.483 81.3457 309.503 81.7072C297.887 83.3912 285.508 85.5802 273.761 90.7162C262.014 95.8522 250.953 103.242 240.598 111.92C230.226 120.462 220.224 129.785 209.43 138.242C198.636 146.698 187.049 154.289 174.456 159.252C161.88 164.351 148.939 167.571 136.19 168.98C110.541 171.679 86.4831 169.375 66.0625 167.591C45.6254 165.672 28.5542 164.307 16.5892 164.246C10.6498 164.005 5.85976 164.174 2.71153 164.281C-0.436706 164.388 -2.214 164.466 -2.214 164.466L-2.12384 162.943Z" fill="black" fill-opacity="0.37"/>
<path d="M209.504 103.734C209.858 104.378 209.55 105.24 208.905 105.593C208.261 105.946 207.399 105.639 207.046 104.994C206.693 104.35 207.001 103.488 207.645 103.135C208.289 102.782 209.135 102.954 209.504 103.734Z" fill="black" fill-opacity="0.37"/>
<path d="M207.317 104.961C207.317 104.961 207.502 105.351 208.076 105.557C208.667 105.897 209.767 105.901 210.601 104.838C211.315 103.927 211.117 102.301 209.989 100.926C208.86 99.5514 207.562 97.922 206.265 96.2926C204.816 94.5442 203.351 92.6603 201.869 90.641C200.387 88.6216 198.753 86.4833 197.357 84.0412C197.004 83.3968 196.651 82.7524 196.179 82.2599C195.826 81.6155 195.337 80.9875 195.239 80.1748L195.222 80.0394C195.222 80.0394 195.222 80.0394 195.206 79.9039L195.189 79.7685C195.173 79.633 195.173 79.633 195.157 79.4976C195.124 79.2267 195.107 79.0912 195.21 78.8039C195.296 78.3811 195.349 77.6874 196.113 77.1825C196.503 76.9977 196.909 76.9484 197.332 77.0346C197.619 77.1372 197.923 77.3752 198.075 77.4942C198.53 77.8513 198.818 77.9539 199.122 78.1919C200.218 79.2959 200.94 80.7202 201.544 82.2963C202.147 83.8724 202.209 85.5142 201.983 87.0535C201.811 87.8991 201.622 88.6092 201.298 89.3357C201.179 89.4876 201.212 89.7585 201.093 89.9104L200.871 90.3496C200.769 90.637 200.682 91.0597 200.58 91.3471C200.186 92.6318 199.928 93.9002 199.94 95.1357C200.088 96.3547 200.507 97.5409 201.418 98.2551C202.329 98.9692 203.614 99.3631 204.849 99.3507C207.32 99.3258 209.898 97.9136 211.158 95.8365C211.856 94.7898 211.979 93.5378 211.593 92.6225C211.19 91.5718 210.414 90.8413 209.672 90.3816C207.915 89.4952 206.154 89.7088 205.033 90.6694C203.913 91.63 203.4 93.0666 203.531 94.1502C203.527 95.2503 204.049 96.1491 204.402 96.7935C204.738 97.3025 205.059 97.676 205.059 97.676C205.059 97.676 204.923 97.6924 204.771 97.5734C204.619 97.4544 204.332 97.3518 204.164 97.0973C203.556 96.6212 202.78 95.8907 202.464 94.4171C202.164 93.0791 202.324 90.998 203.937 89.5653C204.668 88.7895 205.838 88.2353 206.938 88.2393C208.157 88.0914 209.458 88.6208 210.369 89.3349C211.297 90.1844 212.106 91.1859 212.405 92.524C212.705 93.862 212.447 95.1304 211.765 96.3126C210.387 98.5415 207.842 100.225 204.878 100.722C203.388 100.902 201.714 100.693 200.363 99.7575C199.013 98.8217 198.138 97.2785 197.806 95.6695C197.473 94.0605 197.682 92.3858 198.043 90.8301C198.129 90.4073 198.216 89.9846 198.318 89.6972L198.609 88.6998C198.815 88.1251 199.003 87.415 199.057 86.7213C199.315 85.453 199.286 84.082 199.409 82.8301C199.413 81.7301 199.13 80.5274 198.592 79.4931C198.407 79.1032 197.919 78.4752 197.377 78.541C196.429 78.656 196.897 80.2485 196.979 80.9258C197.111 82.0094 197.497 82.9247 198.018 83.8236C199.278 86.2821 200.777 88.4369 202.394 90.4398C203.876 92.4591 205.477 94.3266 206.91 95.9395C208.359 97.688 209.64 99.1819 210.768 100.557C211.089 100.93 211.273 101.32 211.594 101.694C211.778 102.084 211.963 102.474 212.012 102.88C212.111 103.693 211.803 104.555 211.311 105.027C210.818 105.499 210.157 105.716 209.767 105.901C209.226 105.967 208.803 105.881 208.516 105.778C207.789 105.454 207.604 105.064 207.621 105.199L207.317 104.961Z" fill="black" fill-opacity="0.37"/>
<path d="M407.981 77.7327C408.03 78.1391 407.673 78.5947 407.267 78.644C406.86 78.6933 406.405 78.3362 406.355 77.9299C406.306 77.5235 406.663 77.0679 407.069 77.0186C407.628 77.0883 407.932 77.3264 407.981 77.7327Z" fill="black" fill-opacity="0.37"/>
<path d="M406.643 78.0324C406.643 78.0324 406.676 78.3033 406.844 78.5578C407.012 78.8123 407.722 79.001 408.231 78.6644C408.74 78.3278 409.048 77.4658 408.662 76.5505C408.412 75.6188 408.009 74.568 407.726 73.3654C407.307 72.1792 407.024 70.9766 406.589 69.6549C406.289 68.3169 405.837 66.8598 405.521 65.3862C405.472 64.9799 405.422 64.5735 405.373 64.1672C405.324 63.7608 405.274 63.3545 405.361 62.9317L405.344 62.7962L405.328 62.6608C405.311 62.5253 405.43 62.3734 405.414 62.238C405.516 61.9507 405.755 61.6469 406.161 61.5976C406.432 61.5647 406.584 61.6838 406.736 61.8028C406.887 61.9218 407.039 62.0408 407.056 62.1763C407.224 62.4307 407.376 62.5498 407.409 62.8207C407.778 63.6005 407.893 64.5487 407.856 65.3778C407.836 66.3424 407.528 67.2044 407.069 67.9474C406.847 68.3866 406.609 68.6903 406.235 69.0105C406.116 69.1624 406.116 69.1624 405.997 69.3143L405.743 69.4826C405.624 69.6345 405.505 69.7864 405.386 69.9383C404.91 70.5458 404.569 71.1369 404.229 71.728C404.04 72.4381 404.122 73.1154 404.323 73.6407C404.676 74.2851 405.267 74.6257 405.858 74.9664C407.16 75.4957 408.785 75.2986 409.786 74.4899C410.295 74.1532 410.62 73.4267 410.689 72.8685C410.759 72.3102 410.406 71.6658 410.086 71.2923C409.429 70.4099 408.448 70.254 407.652 70.4881C406.855 70.7221 406.379 71.3296 406.191 72.0398C405.985 72.6144 406.051 73.1562 406.1 73.5626C406.15 73.9689 406.302 74.0879 406.302 74.0879C406.302 74.0879 406.302 74.0879 406.15 73.9689C406.133 73.8335 405.981 73.7145 405.965 73.579C405.78 73.1891 405.579 72.6637 405.616 71.8346C405.653 71.0054 406.231 70.1106 407.401 69.5563C407.927 69.3552 408.604 69.273 409.179 69.4782C409.753 69.6834 410.361 70.1594 410.714 70.8038C411.067 71.4482 411.284 72.109 411.096 72.8192C411.042 73.5128 410.583 74.2558 410.09 74.7279C408.953 75.553 407.361 76.0211 405.653 75.541C404.808 75.3687 404.065 74.9091 403.56 74.1457C403.055 73.3823 402.94 72.4341 403.096 71.4531C403.268 70.6075 403.711 69.7291 404.171 68.9861C404.29 68.8342 404.409 68.6823 404.528 68.5305L404.885 68.0748C405.123 67.7711 405.361 67.4673 405.464 67.1799C405.804 66.5889 406.128 65.8623 406.317 65.1522C406.522 64.5775 406.576 63.8838 406.51 63.342C406.477 63.0711 406.428 62.6648 406.005 62.5786C405.447 62.5089 405.41 63.338 405.307 63.6254C405.238 64.1836 405.168 64.7418 405.234 65.2836C405.414 66.7736 405.731 68.2471 406.166 69.5688C406.601 70.8904 407.036 72.2121 407.303 73.2792C407.722 74.4654 407.989 75.5326 408.375 76.4479C408.408 76.7188 408.576 76.9733 408.592 77.1087C408.625 77.3796 408.658 77.6505 408.539 77.8024C408.453 78.2252 408.096 78.6808 407.706 78.8656C407.316 79.0503 407.045 79.0832 406.758 78.9806C406.47 78.878 406.319 78.759 406.167 78.64C405.863 78.4019 405.83 78.131 405.83 78.131L406.643 78.0324Z" fill="black" fill-opacity="0.37"/>
</g>
<defs>
<clipPath id="clip0">
<rect width="422.021" height="146.814" fill="white" transform="translate(-16 50.8225) rotate(-6.91674)"/>
</clipPath>
</defs>
</svg>
