<svg width="22" height="18" viewBox="0 0 22 18" fill="none" xmlns="http://www.w3.org/2000/svg">
<path d="M22 5.71651V15.4643C22 16.5446 21.1161 17.4286 20.0357 17.4286H1.96429C0.883929 17.4286 0 16.5446 0 15.4643V5.71651C0.368304 6.12165 0.785714 6.47767 1.23996 6.78459C3.2779 8.17187 5.3404 9.55915 7.34152 11.0201C8.37277 11.7812 9.64955 12.7143 10.9877 12.7143H11.0123C12.3504 12.7143 13.6272 11.7812 14.6585 11.0201C16.6596 9.57142 18.7221 8.17187 20.7723 6.78459C21.2143 6.47767 21.6317 6.12165 22 5.71651ZM22 2.10714C22 3.48214 20.981 4.72209 19.9007 5.47098C17.9855 6.79687 16.058 8.12276 14.1551 9.46093C13.3571 10.0134 12.0067 11.1429 11.0123 11.1429H10.9877C9.9933 11.1429 8.64286 10.0134 7.84487 9.46093C5.94196 8.12276 4.01451 6.79687 2.11161 5.47098C1.23996 4.88169 0 3.49442 0 2.37723C0 1.1741 0.65067 0.142853 1.96429 0.142853H20.0357C21.1038 0.142853 22 1.02678 22 2.10714Z" fill="#4100F5"/>
</svg>
