<svg width="21" height="21" viewBox="0 0 21 21" fill="none" xmlns="http://www.w3.org/2000/svg">
<path d="M10.4977 5.11587C13.4772 5.11587 15.8806 7.51975 15.8806 10.5C15.8806 13.4803 13.4772 15.8841 10.4977 15.8841C7.51807 15.8841 5.11472 13.4803 5.11472 10.5C5.11472 7.51975 7.51807 5.11587 10.4977 5.11587ZM10.4977 14.0004C12.4231 14.0004 13.9973 12.4306 13.9973 10.5C13.9973 8.5694 12.4278 6.99961 10.4977 6.99961C8.56748 6.99961 6.99805 8.5694 6.99805 10.5C6.99805 12.4306 8.57217 14.0004 10.4977 14.0004ZM3.63898 4.89563C3.63898 5.59383 4.20117 6.15146 4.89453 6.15146C5.59258 6.15146 6.15008 5.58914 6.15008 4.89563C6.15008 4.20211 5.5879 3.6398 4.89453 3.6398C4.20117 3.6398 3.63898 4.20211 3.63898 4.89563ZM0.0737858 6.1702C0.153429 4.48795 0.53759 2.99782 1.76972 1.77011C2.99716 0.542396 4.48695 0.15815 6.16882 0.0738034C7.90223 -0.0246011 13.0978 -0.0246011 14.8312 0.0738034C16.5084 0.153464 17.9982 0.537711 19.2303 1.76542C20.4624 2.99314 20.8419 4.48326 20.9262 6.16551C21.0246 7.89931 21.0246 13.096 20.9262 14.8298C20.8466 16.512 20.4624 18.0022 19.2303 19.2299C17.9982 20.4576 16.5131 20.8419 14.8312 20.9262C13.0978 21.0246 7.90223 21.0246 6.16882 20.9262C4.48695 20.8465 2.99716 20.4623 1.76972 19.2299C0.542276 18.0022 0.158113 16.512 0.0737858 14.8298C-0.0245953 13.096 -0.0245953 7.90399 0.0737858 6.1702ZM2.31316 16.6901C2.67858 17.6086 3.386 18.3161 4.30892 18.6863C5.69096 19.2346 8.97038 19.1081 10.4977 19.1081C12.0249 19.1081 15.309 19.2299 16.6864 18.6863C17.6046 18.3208 18.312 17.6132 18.6822 16.6901C19.2303 15.3078 19.1038 12.0276 19.1038 10.5C19.1038 8.97239 19.2256 5.68755 18.6822 4.30989C18.3167 3.39144 17.6093 2.68387 16.6864 2.31368C15.3044 1.76542 12.0249 1.89194 10.4977 1.89194C8.97038 1.89194 5.68628 1.77011 4.30892 2.31368C3.39069 2.67918 2.68327 3.38676 2.31316 4.30989C1.76503 5.69223 1.89152 8.97239 1.89152 10.5C1.89152 12.0276 1.76503 15.3125 2.31316 16.6901Z" fill="white"/>
</svg>
